<svg xmlns="http://www.w3.org/2000/svg" viewBox="0 0 55.79 26.01"><defs><style>.cls-1{fill:#fff;}</style></defs><g id="圖層_2" data-name="圖層 2"><g id="圖層_1-2" data-name="圖層 1"><path class="cls-1" d="M51.72,7.36a3.89,3.89,0,0,0-4.07,3.69c0,.09,0,.19,0,.29l-13,3.12L30.1,6.77A3.59,3.59,0,0,0,32,3.68,3.89,3.89,0,0,0,27.9,0a3.9,3.9,0,0,0-4.08,3.68,3.58,3.58,0,0,0,1.87,3.09l-4.54,7.69-13-3.12a4.21,4.21,0,0,0,0-.5A3.89,3.89,0,0,0,4.07,7.16,3.89,3.89,0,0,0,0,10.84a3.89,3.89,0,0,0,4.07,3.68,4.31,4.31,0,0,0,2.73-.95l6.25,7.32V26H42.74V20.89l6.15-7.2a4.29,4.29,0,0,0,2.83,1,3.88,3.88,0,0,0,4.07-3.67A3.89,3.89,0,0,0,51.72,7.36Z"/></g></g></svg>