<svg xmlns="http://www.w3.org/2000/svg" viewBox="0 0 290 140"><defs><style>.cls-1{fill:none;}.cls-2{fill:#f7cd4b;}.cls-3{fill:#e2007f;}.cls-4{fill:#fac500;}</style></defs><g id="圖層_2" data-name="圖層 2"><g id="圖層_1-2" data-name="圖層 1"><rect class="cls-1" width="290" height="140"/><polygon class="cls-2" points="286.87 132.24 44.2 132.24 33.87 73.57 48.2 30.24 286.87 30.24 286.87 132.24"/><path class="cls-3" d="M50.75,132.49c-5.94,0-18.27-8.23-18.5-15-.06-1-.25-4,6.22-19.36-6.83.55-13.19,1.34-19.71,2.44l-.75.12-.71-.26c-4.76-1.75-9.25-11.26-8.83-18.11a10.06,10.06,0,0,1-2.49-6c0-2.63,2.23-11.23,24-33.35C43,29.82,68,7.51,79.31,7.51c8.29,0,15.38,7.15,15.73,13.07l.1,1.81L93,23.58c4.42,1.85,8.4,4.84,8.76,8.26l.1,1-.56.85A423.28,423.28,0,0,0,74.58,81.53c5.38,3.21,9.66,8.56,9.85,12.67l.14,3H67.12C62,108.7,57.4,120,53.42,130.64l-.69,1.85Zm-16.24-57c5.27.08,9.8.28,14.07.63C54.64,64,60.9,52.41,66.72,42.56A251.87,251.87,0,0,0,34.51,75.53Z"/><path class="cls-4" d="M79.31,10.35c5.22,0,12.56,4.79,12.89,10.4-2.12,1.15-4.24,2.47-6.37,3.79,5.55.66,12.73,4.46,13.06,7.59A430.71,430.71,0,0,0,70.82,82.79c5.71,2.47,10.61,8.08,10.77,11.55H65.28c-5.39,12-10.28,23.92-14.53,35.3-4.73,0-15.5-7.42-15.66-12.21C34.93,114.79,38,106.21,42.92,95a234.54,234.54,0,0,0-24.63,2.8c-3.59-1.32-7.84-10.72-6.86-16.33-1.63-1.82-2.61-3.63-2.61-5.12-.16-11.88,55.15-66,70.49-66m-1.47,19.8A249.32,249.32,0,0,0,28.73,78.33c7.18,0,14.36.17,21.53.83,8.33-16.83,18.61-35.64,27.58-49M79.31,4.67C64.59,4.67,34,34.94,28,41A203.42,203.42,0,0,0,11,60.25C4,69.53,3.1,73.76,3.13,76.39a12.13,12.13,0,0,0,2.48,6.9c.07,7.53,4.64,17.62,10.71,19.85l1.42.52,1.49-.25c4.94-.83,9.79-1.48,14.82-2-4.82,12.07-4.72,15-4.64,16.31.23,5.06,4.69,9.41,8.41,12.17,1.71,1.28,7.72,5.43,12.93,5.43h4l1.38-3.7C59.85,121.52,64.18,110.9,69,100H87.56l-.28-6c-.19-4.06-3.51-9.57-9-13.57a413.73,413.73,0,0,1,25.4-45.23l1.12-1.7-.21-2C104.22,28.37,102,25.43,98,23l-.15-2.57C97.63,16.13,95.19,12,91,8.9A20.42,20.42,0,0,0,79.31,4.67ZM40.42,72.83C45,67.4,50.13,62,55.47,56.72c-2.86,5.27-5.74,10.8-8.58,16.46-2.07-.15-4.21-.26-6.47-.35Z"/></g></g></svg>