<svg xmlns="http://www.w3.org/2000/svg" viewBox="0 0 290 140"><defs><style>.cls-1{fill:none;}.cls-2{fill:#f7cd4b;}.cls-3{fill:#e2007f;}.cls-4{fill:#fac500;}</style></defs><g id="圖層_2" data-name="圖層 2"><g id="圖層_1-2" data-name="圖層 1"><rect class="cls-1" width="290" height="140"/><polygon class="cls-2" points="281.45 135.32 28.45 135.32 55.78 33.32 281.45 33.32 281.45 135.32"/><path class="cls-3" d="M30.57,132.57c-6.17,0-18.93-8.22-19.16-15C10.86,102,32,64.27,44.46,43.31c-3.65-1.67-8.23-7.18-8.41-10.09v-.1c-.06-2.46,1.51-5.25,5-8.78C47.56,17.61,62.49,7.43,70.05,7.43c4.25,0,8,2.7,10.59,7.63,3.3,2.81,5.08,5.44,5.3,7.83L86,24l-.63.87C64.13,53.74,42.67,100.89,33.28,130.58l-.63,2Z"/><path class="cls-4" d="M70.05,10.27c3.75,0,6.53,3,8.32,6.6C81,19,82.94,21.33,83.11,23.14,62.71,50.86,40.85,97.22,30.57,129.73c-4.9,0-16.16-7.43-16.32-12.21-.49-14,19.09-50.65,36.55-79.2A39.16,39.16,0,0,0,46.39,41c-1.63,0-7.34-5.28-7.5-7.92-.17-6.27,23-22.77,31.16-22.77m0-5.69C61.51,4.58,46.19,14.93,39,22.35c-4,4.12-5.85,7.57-5.76,10.84v.2C33.37,36.06,35,39,38.07,42a25.6,25.6,0,0,0,2.52,2.23c-7.8,13.19-14.74,25.94-19.92,36.63-8.4,17.35-12.37,29.4-12.11,36.84.18,5.15,4.87,9.55,8.77,12.33,1.77,1.26,8,5.37,13.24,5.37h4.16l1.26-4C45.31,102,66.6,55.17,87.69,26.51L89,24.78l-.2-2.15c-.28-3.08-2.2-6.16-5.87-9.38-3.11-5.6-7.64-8.67-12.85-8.67Z"/></g></g></svg>