<svg xmlns="http://www.w3.org/2000/svg" viewBox="0 0 290 140"><defs><style>.cls-1{fill:none;}.cls-2{fill:#f7cd4b;}.cls-3{fill:#e2007f;}.cls-4{fill:#fac500;}</style></defs><g id="圖層_2" data-name="圖層 2"><g id="圖層_1-2" data-name="圖層 1"><rect class="cls-1" width="290" height="140"/><polygon class="cls-2" points="289.13 135.45 12.47 135.45 79.47 33.45 289.13 33.45 289.13 135.45"/><path class="cls-3" d="M13.74,130.23c-6,0-8.23-9.3-8.23-15.55,0-.48,0-1,0-1.41a6.21,6.21,0,0,1-1.82-4.2C3.71,97,18,85.2,34.53,71.53,50.75,58.11,69,43,72.38,27.4c-13.83,3-25.83,12-30.88,17.86l-1,1.14L39,46.23c-4.57-.55-10.18-9.38-10.18-16,0-11.54,22.65-22.81,35.8-22.81,10.51,0,19.6,5.05,22.17,12.14,5.62,4.16,8.58,9.77,8.58,16.28,0,21.92-19.28,36.45-39.69,51.84-6,4.52-12.15,9.15-17.8,14q1.88-.06,3.9-.06c7.85,0,16.77,1,23.48,8.36,3.2,3.44,5,11.63,4.65,16.81l-.23,3-3-.45a175.87,175.87,0,0,0-25.37-2,134.64,134.64,0,0,0-27,2.75l-.28.06Z"/><path class="cls-4" d="M64.64,10.24c9.14,0,18,4.29,19.74,11,4.57,3.14,8.16,7.76,8.16,14.52,0,29.2-38.34,45.7-62.65,69.3a95,95,0,0,1,11.91-.66c8.16,0,15.66,1.15,21.37,7.42,2.61,2.81,4.25,10.23,3.92,14.69a177.8,177.8,0,0,0-25.78-2,137.41,137.41,0,0,0-27.57,2.8c-3.59,0-5.39-7.42-5.39-12.7a11.31,11.31,0,0,1,.16-2.48c-1.14-1-1.95-2-1.95-3.13,0-23.27,67.06-51.48,69.18-85.14C59.26,26.08,45.06,36.8,39.35,43.4c-2.77-.33-7.67-7.59-7.67-13.2,0-8.91,20.07-20,33-20m0-5.69c-7.2,0-16.24,2.77-24.18,7.42C35.05,15.13,26,21.7,26,30.2c0,7.57,6.16,18.07,12.69,18.85l3,.36,2-2.29c4.19-4.83,13.42-12,24.45-15.62C62.64,44.59,46.89,57.61,32.71,69.34,15.62,83.47.87,95.67.87,109.07a8.7,8.7,0,0,0,1.79,5.19v.42a31.63,31.63,0,0,0,1.68,10.24c2.53,7.09,7,8.15,9.4,8.15h.56l.56-.11a132.06,132.06,0,0,1,26.45-2.69,171.5,171.5,0,0,1,25,1.92l6.06.89.44-6.11c.36-4.9-1.11-14.31-5.4-19-6.3-6.91-14.19-8.76-21.59-9.16,3.82-3,7.76-6,11.64-8.94C77.48,74.79,98.23,59.15,98.23,35.81c0-7.19-3.12-13.39-9.06-18.06-3.33-7.87-13-13.2-24.53-13.2Z"/></g></g></svg>