<svg xmlns="http://www.w3.org/2000/svg" viewBox="0 0 290 140"><defs><style>.cls-1{fill:none;}.cls-2{fill:#f7cd4b;}.cls-3{fill:#e2007f;}.cls-4{fill:#fac500;}</style></defs><g id="圖層_2" data-name="圖層 2"><g id="圖層_1-2" data-name="圖層 1"><rect class="cls-1" width="290" height="140"/><polygon class="cls-2" points="289.26 131.58 36.26 131.58 71.92 86.91 41.26 29.58 289.26 29.58 289.26 131.58"/><path class="cls-3" d="M31.89,131.17c-6.35,0-14.4-3.8-17.73-10.25-7.25-2.65-10.57-10.58-10.57-17.18,0-12,7.29-25.12,13.94-25.12,4.8,0,11.62,10,11.82,14.6l0,.86-.44.74c-2.59,4.29-3.46,11.76-2.71,16.68,14.2-5.48,29-24.9,31.93-41.88-10.85,1.29-16.3,4.49-18.23,5.9a5.2,5.2,0,0,1-3.07,1.29,3.83,3.83,0,0,1-1.31-.24l-.11,0C29.93,74.42,21,65.14,20.57,59.92v-.15c-.21-7,11.1-25.66,16.89-34-.17-2.42-.21-6.49,1.08-8.84,3.28-5.71,27.25-8.07,39.37-8.07,8.89,0,14.63,2.1,17.55,6.41C98,19.09,98,24.35,95.39,30.89l-.74,1.83-2,0c-4.69-.12-8-.17-10.94-.17a150.63,150.63,0,0,0-20.81,1.29A199.4,199.4,0,0,0,49.74,51.57H52c10.51,0,23.13,3.33,25.15,12.62,3,2.91,4.61,7,4.78,12.25.7,12.35-5.85,28.12-16.29,39.16C58.89,122.7,47.59,131.17,31.89,131.17Z"/><path class="cls-4" d="M77.9,11.67c14,0,19.91,5.62,14.85,18.15-4-.1-7.6-.17-11-.17A151.17,151.17,0,0,0,59.3,31.14,192.16,192.16,0,0,0,44.94,54.57c2.29-.16,4.73-.16,7-.16,9.79,0,21.53,3.13,22.51,11.22,2.78,2.31,4.41,5.77,4.57,10.89,1.14,20.13-18.27,51.81-47.15,51.81-6,0-13.38-4-15.67-9.74-6.36-1.65-9.79-8.41-9.79-14.85,0-11.38,6.86-22.27,11.1-22.27,2.61,0,8.81,8.08,9,11.88-3.59,5.94-4.24,16.66-2.28,21.78,18-4.62,35.73-29.7,37.2-48.68-11.42.83-19.09,3.8-23.17,6.77-.79.57-1.11.74-1.39.74a1.23,1.23,0,0,1-.4-.08C31.72,72.06,23.73,63.65,23.4,59.69c-.16-5.45,9.63-22.77,17-33.17-.32-3.3-.16-6.76.66-8.25,1.79-3.13,19.9-6.6,36.87-6.6M77.9,6A146.14,146.14,0,0,0,52.75,8.2C40.46,10.45,37.48,13,36.09,15.45l0,0,0,0c-1.43,2.61-1.61,6.46-1.48,9.4C29.08,33,17.47,51.78,17.72,59.86v.29c.57,6.95,10.81,16.78,16.69,19l.11,0,.11,0a7,7,0,0,0,2.22.38,7.76,7.76,0,0,0,4.72-1.82c1.2-.87,5.1-3.31,12.88-4.77C50.69,86.5,39.8,101,28.82,107.12c.08-3.72.87-8,2.55-10.83l.89-1.47-.07-1.72c-.17-4-3-8.34-4.73-10.56-5.14-6.76-8.75-6.76-9.93-6.76C11.6,75.78,7.38,82,5.39,85.63A39.29,39.29,0,0,0,.74,103.74c0,8.75,4.58,16.35,11.41,19.43C16.32,130.23,25.05,134,31.89,134c13,0,25.75-5.85,35.78-16.47,11.1-11.74,17.79-27.94,17.06-41.28-.2-5.63-1.89-10.17-5-13.53C77,53.23,65.29,49.33,54.6,48.79c2.31-3.91,4.94-8,7.94-12.34a148.87,148.87,0,0,1,19.19-1.11c3,0,6.2,0,10.87.17l4,.1L98,32c3-7.46,2.94-13.62-.22-18.3C94.32,8.49,87.81,6,77.9,6Z"/></g></g></svg>