<svg xmlns="http://www.w3.org/2000/svg" viewBox="0 0 291.15 140"><defs><style>.cls-1{fill:none;}.cls-2{fill:#f7cd4b;}.cls-3{fill:#e2007f;}.cls-4{fill:#fac500;}</style></defs><g id="圖層_2" data-name="圖層 2"><g id="圖層_1-2" data-name="圖層 1"><rect class="cls-1" x="0.57" width="290" height="140"/><polygon class="cls-2" points="291.15 135.37 38.15 135.37 74.65 33.37 291.15 33.37 291.15 135.37"/><path class="cls-3" d="M34.13,132c-5.77,0-10.44-2.5-13.09-6.94-10.31-.39-17.61-12.36-18.14-20.64-.53-9.33,3.25-18.49,7.26-22.74,1.82-1.92,3.68-2.89,5.53-2.89,2.86,0,6.64,3.37,8.64,5.38s5.48,6,5.62,9.39l0,.8-.38.7c-2.19,4-2.62,12.07-1.72,17.89,10.29-4.82,21.65-19.1,25.14-36-3.91.65-7.44,1.41-8.83,1.71l-.7.15-.69-.19c-3.8-1.1-6.57-6.15-7.51-9.28-1.12-3.77-.21-5.9.75-7l.52-.61.76-.25C55,55.64,65.47,40.4,68.59,27.21,55.35,30.7,46,39.23,42.37,43l-1,1L40,43.83c-4.46-.56-9.94-8.78-10-14.95-.15-2.94,1.24-6,4.14-9.07C40.52,13,53,7.48,62,7.48,72.1,7.48,80.69,12.15,83.35,19c5.14,4,8,9.29,8,14.95,0,9.37-6.91,25.59-20,34.56a20.57,20.57,0,0,1,7.89,16.1C79.23,98.06,65.81,132,34.13,132Z"/><path class="cls-4" d="M62,10.32c8.64,0,17,4,18.92,10.39,4.08,3,7.51,7.43,7.51,13.2,0,9.74-8.16,27.06-22.52,34.49A18.06,18.06,0,0,1,76.39,84.57c0,13-12.89,44.55-42.26,44.55-5.39,0-9.47-2.48-11.43-7.1l-1.14.17c-8.48,0-15.33-10.4-15.82-18-.66-11.55,5.87-22.6,10-22.6,2.61,0,11.26,8.08,11.42,12-3.1,5.61-3.1,17-1.3,23.1C38,113.11,53.54,95.62,56.48,73.51c-5.22.66-10.61,1.82-12.89,2.31-3.43-1-7.51-9.24-5.39-11.71,20.24-6.6,32-24.92,33.94-40.59C57.78,26,46.53,34.57,40.33,41c-2.61-.33-7.51-7.1-7.51-12.21C32.33,20.71,50.28,10.32,62,10.32m0-5.69c-9.83,0-23,5.81-30,13.23C28.62,21.5,27,25.24,27.13,29c.1,7,6.22,16.89,12.48,17.68l2.83.36,2-2A57.54,57.54,0,0,1,64.28,31.6c-4.12,11-13.45,22.4-27.84,27.1l-1.52.49-1,1.22c-1.42,1.66-2.81,4.69-1.31,9.69C33.9,74.56,37.43,80,42,81.29l1.38.4,1.4-.31c.83-.18,2.44-.53,4.44-.91-3.69,12.88-11.69,22.76-18.92,27.73-.15-4.47.4-9.31,1.78-11.81L32.86,95l-.06-1.59c-.14-3.34-2.31-7.14-6.45-11.29s-7.7-6.21-10.66-6.21c-1.83,0-4.64.65-7.59,3.78-4.3,4.54-8.64,14.25-8,24.83.59,9.21,8.14,21.77,19.36,23.22,3.25,4.53,8.43,7.07,14.71,7.07,18.54,0,30.22-10.74,36.75-19.74,7.73-10.67,11.19-23,11.19-30.5a23.17,23.17,0,0,0-6.3-15.86A51.89,51.89,0,0,0,87.48,54.92c4.18-7.05,6.67-14.9,6.67-21,0-6.33-3-12.21-8.46-16.72C82.3,9.71,72.91,4.63,62,4.63Z"/></g></g></svg>