<svg xmlns="http://www.w3.org/2000/svg" viewBox="0 0 290 140"><defs><style>.cls-1{fill:none;}.cls-2{fill:#f7cd4b;}.cls-3{fill:#e2007f;}.cls-4{fill:#fac500;}</style></defs><g id="圖層_2" data-name="圖層 2"><g id="圖層_1-2" data-name="圖層 1"><rect class="cls-1" width="290" height="140"/><polygon class="cls-2" points="289.98 132.57 36.98 132.57 27.31 106.9 36.98 30.57 289.98 30.57 289.98 132.57"/><path class="cls-3" d="M36.38,132.66c-12.06,0-17-6.4-18.85-10.41-4.87-1-14-4-14.66-22.2V100c0-18.58,9.19-41.08,25.2-61.72C42.61,19.47,58.81,7.35,69.34,7.35c6.29,0,16.49,5.78,16.71,12.65l.06,1.78-1.58.83A114.81,114.81,0,0,0,49.87,50.88a20.15,20.15,0,0,1,7.24-1.46c9.44,0,11.9,6.23,13,10.59,7,2.86,11.77,9.52,12.82,18.15,1.26,11.43-4.64,26.3-15,37.91C58.46,126.61,47,132.66,36.38,132.66ZM58.85,68.78C43.5,74.84,28.67,94.52,27,111.22,44.35,106.3,56.72,86.74,58.85,68.78Z"/><path class="cls-4" d="M69.34,10.19c5.22,0,13.71,5,13.87,9.9C64,30.15,48.62,45.66,37.85,62.49c6.36-6.1,13.22-10.23,19.26-10.23,8.32,0,9.62,5.61,10.6,9.9,6.85,2.15,11.42,8.25,12.4,16.34,2.29,20.62-20.72,51.31-43.73,51.31-10.11,0-15-5-16.8-10.06-4.24-.83-13.22-1.82-13.87-19.8,0-40.26,44.38-89.76,63.63-89.76M62,64.8c-19.25,4.62-38.34,30-38,50,22.19-3.63,37.37-28.88,38-50M69.34,4.5c-13.82,0-32.09,17.23-43.53,32C9.42,57.62,0,80.75,0,100v.2C.7,118.9,10,123.3,15.61,124.73c2.56,4.61,8.32,10.77,20.77,10.77C47.78,135.5,60,129.11,70,118,81.1,105.59,87.13,90.23,85.77,77.87v-.06c-1.11-9.15-6-16.35-13.26-19.86-1.45-4.71-4.85-11.19-15-11.37a109.48,109.48,0,0,1,28.3-21.45L89,23.48,88.9,19.9C88.61,11.11,76.83,4.5,69.34,4.5ZM30.63,106.83a54.16,54.16,0,0,1,9.56-19.35A53.3,53.3,0,0,1,55.09,73.8a55.59,55.59,0,0,1-8.67,19.27,40.78,40.78,0,0,1-15.79,13.76Z"/></g></g></svg>