<svg xmlns="http://www.w3.org/2000/svg" viewBox="0 0 93.38 93.38"><defs><style>.cls-1{fill:#fff;}</style></defs><g id="圖層_2" data-name="圖層 2"><g id="圖層_1-2" data-name="圖層 1"><path class="cls-1" d="M45.41,0H48a28.1,28.1,0,0,1,3.43,1.13c3.44,1.6,5.76,4.4,7.69,7.54A53.8,53.8,0,0,1,65.63,26.4,1.48,1.48,0,0,0,67,27.75,54.27,54.27,0,0,1,84.56,34.2a22.19,22.19,0,0,1,6.35,5.51,14.6,14.6,0,0,1,2.47,5.7V48A14.56,14.56,0,0,1,91,53.59a25.25,25.25,0,0,1-9.27,7.18,58,58,0,0,1-14.8,4.87,1.35,1.35,0,0,0-1.24,1.25,59.3,59.3,0,0,1-4.74,14.57,29.49,29.49,0,0,1-5,7.45A14.67,14.67,0,0,1,48,93.38H45.41a32.09,32.09,0,0,1-3.51-1.17c-3.45-1.64-5.77-4.48-7.7-7.65A54,54,0,0,1,27.75,67a1.48,1.48,0,0,0-1.35-1.35A54.42,54.42,0,0,1,8.82,59.18a22.09,22.09,0,0,1-6.35-5.52A14.6,14.6,0,0,1,0,48V45.78a29.9,29.9,0,0,1,1-3.39,16.22,16.22,0,0,1,5.77-6.78c1.34-1,2.78-1.82,4.2-2.75-.44-1.2-.88-2.4-1.38-3.78L23,31.33,14.32,41.84l-1.51-4C11,39.35,9.17,40.59,7.63,42.11c-2.85,2.83-2.87,6-.18,9a18.3,18.3,0,0,0,2.7,2.42c3.73,2.73,8,4.26,12.39,5.56,1.27.38,2.56.66,4,1l-.13-1.67c-.16-1.69-.36-3.38-.46-5.08a105.24,105.24,0,0,1,.89-21.72,66.25,66.25,0,0,1,5.83-20,27.5,27.5,0,0,1,5.74-8A14.19,14.19,0,0,1,45.41,0ZM62.05,43.86c0-.08.08-.14.08-.19-.3-3.63-.59-7.26-.93-10.89a1,1,0,0,0-.67-.63c-1-.19-1.93-.29-2.89-.39A103.63,103.63,0,0,0,33,32.11c-.58.07-.86.26-.9.88-.29,4.42-.85,8.84-.84,13.26,0,4.76.54,9.52.89,14.27a1.06,1.06,0,0,0,.71.7,29.82,29.82,0,0,0,3,.4,104.24,104.24,0,0,0,21.12,0,71,71,0,0,0,19.19-4.39,26.06,26.06,0,0,0,9.73-6.09c2.6-2.79,2.72-5.86.2-8.72a18.4,18.4,0,0,0-2.89-2.62c-3.74-2.73-8-4.26-12.41-5.55-1.26-.37-2.54-.65-3.87-1,.27,3.68.54,7.21.81,10.87h4L64.53,55.8c-2.19-4.07-4.29-8-6.41-11.94ZM33.28,26.55a108.67,108.67,0,0,1,26.73,0c0-.28,0-.41,0-.52a53.46,53.46,0,0,0-4.11-11.93,21.87,21.87,0,0,0-4.8-6.69C48.35,5,45.33,4.82,42.56,7.22a17.46,17.46,0,0,0-2.69,2.94c-2.74,3.72-4.26,8-5.56,12.38C33.93,23.81,33.65,25.1,33.28,26.55Zm0,40.27A51.93,51.93,0,0,0,38.6,81.31a18.13,18.13,0,0,0,4,4.92c2.61,2.14,5.12,2.24,7.81.22A14,14,0,0,0,52.88,84c3.14-3.92,4.8-8.54,6.21-13.27.37-1.24.64-2.51,1-4A108.34,108.34,0,0,1,33.28,66.82Z"/></g></g></svg>