<svg xmlns="http://www.w3.org/2000/svg" viewBox="0 0 108.59 51"><defs><style>.cls-1{stroke:#000;stroke-miterlimit:10;stroke-width:0.69px;}</style></defs><g id="圖層_2" data-name="圖層 2"><g id="圖層_1-2" data-name="圖層 1"><path class="cls-1" d="M54.3,7.21a1.55,1.55,0,0,1,.89.25l-.1.07a6.3,6.3,0,0,0-.8.55,6.3,6.3,0,0,0-.8-.55l-.1-.06a1.52,1.52,0,0,1,.91-.26m0,12.49,7.15,12.1a6.86,6.86,0,0,0,5.9,3.37,6.73,6.73,0,0,0,1.6-.19l12.52-3-3.67,4.3a6.86,6.86,0,0,0-1.65,4.45V43.8H32.44V40.74a6.85,6.85,0,0,0-1.64-4.45L27.12,32l12.52,3a6.79,6.79,0,0,0,1.6.19,6.87,6.87,0,0,0,5.91-3.37l7.14-12.1M8.22,21.05a1.54,1.54,0,0,1,.89.26,1.49,1.49,0,0,1-.89.26,1.55,1.55,0,0,1-.9-.26,1.55,1.55,0,0,1,.9-.26m92.15.4a1.48,1.48,0,0,1,.9.26,1.56,1.56,0,0,1-.9.25,1.53,1.53,0,0,1-.9-.26,1.56,1.56,0,0,1,.9-.25M54.3.35c-4.35,0-7.88,3.19-7.88,7.12a7,7,0,0,0,3.6,6L41.24,28.31,16,22.27a6,6,0,0,0,.08-1c0-3.93-3.52-7.12-7.87-7.12S.35,17.38.35,21.31s3.52,7.12,7.87,7.12a8.3,8.3,0,0,0,5.27-1.84L25.58,40.74v9.92H83V40.74L94.9,26.82a8.27,8.27,0,0,0,5.47,2c4.34,0,7.87-3.18,7.87-7.11s-3.53-7.12-7.87-7.12-7.87,3.18-7.87,7.12a5.78,5.78,0,0,0,0,.58l-25.19,6L58.56,13.44a7,7,0,0,0,3.61-6c0-3.93-3.53-7.12-7.87-7.12Z"/></g></g></svg>