<svg xmlns="http://www.w3.org/2000/svg" viewBox="0 0 91.35 86.08"><defs><style>.cls-1{fill:#fff;fill-rule:evenodd;}</style></defs><g id="圖層_2" data-name="圖層 2"><g id="圖層_1-2" data-name="圖層 1"><path class="cls-1" d="M16.53,83.17c.78-4.49,1.57-9.06,2.36-13.64.77-4.42,1.6-8.83,2.27-13.26a2.91,2.91,0,0,0-.81-2.14q-9.47-9.26-19-18.4c-1.09-1-1.85-2.22-.87-3.59a3.62,3.62,0,0,1,2.22-1.26c7.87-1.2,15.75-2.47,23.66-3.37,3.16-.35,5-1.44,6.33-4.44,3.17-7,6.79-13.82,10.21-20.72C43.49,1.12,44.16,0,45.74,0S48,1.18,48.56,2.42c3.79,7.66,7.64,15.29,11.39,23A2.57,2.57,0,0,0,62.16,27c8.36,1.17,16.72,2.38,25.08,3.58l.63.07c1.36.22,2.81.31,3.34,1.93s-.56,2.55-1.56,3.51c-6.25,6-12.5,12-18.69,18.08a2.87,2.87,0,0,0-.73,2.16c1.44,8.69,3,17.37,4.5,26.05.22,1.23.2,2.34-.87,3.16s-2.15.54-3.26,0C62.75,81.42,54.87,77.35,47,73.22a2.51,2.51,0,0,0-2.63,0Q32.57,79.44,20.68,85.56C18.42,86.73,16.41,85.59,16.53,83.17Zm52.34-4.28c-.05-.62-.06-.94-.11-1.24-1.27-7.34-2.49-14.68-3.85-22a4,4,0,0,1,1.36-4.06c5.25-5,10.42-10.05,15.66-15.05a6.34,6.34,0,0,1,1.53-.8l-.52-.59c-.2,0-.39-.09-.59-.11C74.88,34,67.42,32.86,59.93,31.86a4.48,4.48,0,0,1-3.82-2.8C53,22.6,49.75,16.2,46.54,9.78c-.24-.48-.52-.93-.89-1.61C42,15.41,38.55,22.34,35.14,29.31A4,4,0,0,1,31.8,31.8c-4.71.6-9.41,1.31-14.11,2-3.1.44-6.19.9-9.29,1.35l-.24.46a12.73,12.73,0,0,1,1.39,1C14.81,41.67,20,46.75,25.3,51.8A3.35,3.35,0,0,1,26.59,55c-.9,5-1.76,10-2.62,15-.5,2.89-1,5.79-1.54,9,2.42-1.26,4.55-2.42,6.72-3.47a2,2,0,0,0,1.35-2.16q-.12-6.33,0-12.68A9.72,9.72,0,0,1,35.54,52a25,25,0,0,1,3.28-1.39c-4.27-6.25-4.3-11.15-.08-15.12a10.16,10.16,0,0,1,13.1-.66,9.87,9.87,0,0,1,3.77,6c.8,3.85-.6,7-3.23,9.8,5.88,1.64,8.53,5.15,8.53,11.14,0,3.91,0,7.82,0,11.73a2,2,0,0,0,.71,1.51C63.94,76.38,66.3,77.55,68.87,78.89ZM55.79,72.08c0-4.18.13-8.13,0-12.06A4.78,4.78,0,0,0,51,55.69q-5.31-.12-10.61,0a5,5,0,0,0-4.86,4.88c-.06,1.59,0,3.17,0,4.75v6.8c2.76-1.43,5.29-2.62,7.68-4a4.45,4.45,0,0,1,5,0C50.63,69.5,53.14,70.7,55.79,72.08ZM45.67,37.92a5.07,5.07,0,1,0,5.08,5A5.08,5.08,0,0,0,45.67,37.92Z"/></g></g></svg>