<svg xmlns="http://www.w3.org/2000/svg" viewBox="0 0 107.9 50.31"><defs><style>.cls-1{fill:#fff;}</style></defs><g id="圖層_2" data-name="圖層 2"><g id="圖層_1-2" data-name="圖層 1"><path class="cls-1" d="M54,6.86a1.49,1.49,0,0,1,.89.26l-.09.06a6.64,6.64,0,0,0-.8.55,7.68,7.68,0,0,0-.81-.55l-.09-.06a1.55,1.55,0,0,1,.9-.26m0,12.49,7.14,12.1A6.85,6.85,0,0,0,67,34.83a7.2,7.2,0,0,0,1.59-.19l12.53-3-3.68,4.3A6.88,6.88,0,0,0,75.8,40.4v3.05H32.1V40.4a6.89,6.89,0,0,0-1.65-4.46l-3.68-4.3,12.53,3a7.28,7.28,0,0,0,1.6.19,6.85,6.85,0,0,0,5.9-3.38L54,19.35M7.87,20.71a1.55,1.55,0,0,1,.89.25,1.47,1.47,0,0,1-.89.26A1.48,1.48,0,0,1,7,21a1.56,1.56,0,0,1,.9-.25M100,21.1a1.55,1.55,0,0,1,.9.26,1.55,1.55,0,0,1-.9.26,1.47,1.47,0,0,1-.89-.26,1.54,1.54,0,0,1,.89-.26M54,0c-4.35,0-7.88,3.19-7.88,7.12a7,7,0,0,0,3.6,6L40.9,28l-25.23-6a7.77,7.77,0,0,0,.08-1c0-3.92-3.53-7.11-7.88-7.11S0,17,0,21s3.52,7.12,7.87,7.12a8.3,8.3,0,0,0,5.27-1.84L25.24,40.4v9.91H82.66V40.4L94.55,26.47a8.27,8.27,0,0,0,5.47,2c4.35,0,7.88-3.19,7.88-7.12s-3.53-7.12-7.88-7.12-7.87,3.19-7.87,7.12a5.78,5.78,0,0,0,0,.58L67,28,58.22,13.1a7,7,0,0,0,3.6-6C61.82,3.19,58.3,0,54,0Z"/></g></g></svg>