<svg xmlns="http://www.w3.org/2000/svg" viewBox="0 0 67.06 64.29"><defs><style>.cls-1{fill:#fff;}</style></defs><g id="圖層_2" data-name="圖層 2"><g id="圖層_1-2" data-name="圖層 1"><path class="cls-1" d="M0,27.4v-.13c0-.26.06-.52.07-.78a22.89,22.89,0,0,1,2.55-9.58A28,28,0,0,1,13.9,5.31C24.32-.64,35.29-1.49,46.6,2.25A30.82,30.82,0,0,1,63.14,14.61,22.82,22.82,0,0,1,67,29.7a23.28,23.28,0,0,1-4.92,12,54.25,54.25,0,0,1-9.36,9.37,120.34,120.34,0,0,1-18,12.23,11,11,0,0,1-2.55.95c-1,.24-1.55-.29-1.53-1.31a7.19,7.19,0,0,1,.11-1c.18-1.32.42-2.63.55-4,.19-1.8-.36-2.65-2.08-3.19a17.36,17.36,0,0,0-2.48-.53,35.36,35.36,0,0,1-17.53-8A25.16,25.16,0,0,1,.61,32.37C.26,30.75.2,29.06,0,27.4Zm33.34-.82.13,0a3.15,3.15,0,0,1,.24.3l6.18,8.44c.73,1,1.38,1.29,2.24,1s1.19-.92,1.19-2.09V28.32c0-2.36,0-4.71,0-7.06a1.72,1.72,0,0,0-1.47-1.74A1.68,1.68,0,0,0,40,20.62a4.48,4.48,0,0,0-.15,1.22c0,2.26,0,4.53,0,6.8,0,.22,0,.45,0,.81-.22-.27-.34-.41-.45-.56l-6.15-8.38c-.66-.88-1.33-1.18-2.1-.94a1.86,1.86,0,0,0-1.23,2q0,6.41,0,12.82a1.76,1.76,0,1,0,3.49,0V26.58ZM49.22,23c1.59,0,3.14,0,4.68,0a2.56,2.56,0,0,0,.83-.11A1.73,1.73,0,0,0,55.83,21,1.76,1.76,0,0,0,54,19.49c-2.14,0-4.27,0-6.41,0a1.73,1.73,0,0,0-1.85,1.91c0,1.06,0,2.13,0,3.2,0,3.27,0,6.53,0,9.8a1.75,1.75,0,0,0,1.7,2q3.38.06,6.73,0a1.75,1.75,0,1,0-.1-3.5H49.22v-3.2H50c1.37,0,2.75,0,4.12,0A1.75,1.75,0,1,0,54,26.19H49.22ZM15.55,32.89V21.56a1.85,1.85,0,0,0-1.78-2.07,1.83,1.83,0,0,0-1.73,2q0,6.41,0,12.8a1.83,1.83,0,0,0,2,2.07h6.08a1.81,1.81,0,0,0,2-1.75,1.79,1.79,0,0,0-2-1.76Zm8.28-5v6.46a1.77,1.77,0,1,0,3.49,0V21.49a1.76,1.76,0,1,0-3.49,0Z"/></g></g></svg>