<svg xmlns="http://www.w3.org/2000/svg" viewBox="0 0 92.04 86.78"><defs><style>.cls-1{stroke:#000;stroke-miterlimit:10;stroke-width:0.69px;fill-rule:evenodd;}</style></defs><g id="圖層_2" data-name="圖層 2"><g id="圖層_1-2" data-name="圖層 1"><path class="cls-1" d="M16.88,83.51c.77-4.48,1.56-9.06,2.36-13.63.77-4.42,1.59-8.83,2.26-13.27a2.81,2.81,0,0,0-.81-2.13C14.39,48.3,8,42.19,1.66,36.08.57,35-.18,33.85.8,32.48A3.6,3.6,0,0,1,3,31.23c7.88-1.2,15.76-2.48,23.67-3.37,3.15-.36,5-1.44,6.32-4.44,3.17-7,6.8-13.82,10.22-20.72C43.83,1.46,44.5.32,46.08.35s2.21,1.18,2.82,2.41c3.8,7.66,7.64,15.3,11.4,23a2.6,2.6,0,0,0,2.21,1.65c8.36,1.16,16.72,2.38,25.08,3.57.21,0,.42,0,.63.08,1.36.22,2.81.3,3.34,1.93S91,35.5,90,36.47c-6.24,6-12.49,12-18.68,18.07a2.86,2.86,0,0,0-.73,2.17c1.44,8.69,3,17.37,4.5,26.05.21,1.22.19,2.34-.88,3.16s-2.14.54-3.25,0C63.1,81.77,55.22,77.7,47.38,73.57a2.49,2.49,0,0,0-2.63,0Q32.92,79.78,21,85.91C18.76,87.08,16.75,85.93,16.88,83.51Zm52.34-4.28c0-.61-.06-.93-.11-1.24-1.27-7.33-2.49-14.67-3.85-22a4,4,0,0,1,1.35-4.06c5.25-5,10.43-10,15.66-15a5.91,5.91,0,0,1,1.54-.8l-.53-.6-.58-.11c-7.47-1.07-14.94-2.18-22.42-3.18a4.5,4.5,0,0,1-3.82-2.8C53.34,23,50.09,16.55,46.89,10.13c-.24-.48-.52-.93-.9-1.62-3.61,7.25-7.1,14.18-10.51,21.14a4,4,0,0,1-3.33,2.49c-4.72.61-9.41,1.32-14.12,2L8.75,35.49c-.08.15-.17.3-.25.46a12.76,12.76,0,0,1,1.4,1q7.87,7.59,15.75,15.18a3.38,3.38,0,0,1,1.29,3.2c-.9,5-1.76,10-2.63,15-.5,2.89-1,5.78-1.54,9,2.43-1.26,4.55-2.42,6.73-3.47a2,2,0,0,0,1.35-2.16q-.12-6.34,0-12.68a9.7,9.7,0,0,1,5.06-8.6A24.5,24.5,0,0,1,39.17,51c-4.27-6.24-4.3-11.14-.08-15.11a10.16,10.16,0,0,1,13.09-.67,9.94,9.94,0,0,1,3.78,6c.8,3.85-.6,7-3.23,9.8,5.88,1.64,8.52,5.16,8.53,11.15,0,3.91,0,7.82,0,11.73a2,2,0,0,0,.71,1.5C64.29,76.72,66.65,77.89,69.22,79.23ZM56.14,72.42c0-4.17.12-8.12,0-12.05A4.78,4.78,0,0,0,51.38,56q-5.31-.12-10.62,0a4.94,4.94,0,0,0-4.85,4.88c-.06,1.58,0,3.17,0,4.75v6.8c2.75-1.44,5.28-2.62,7.67-4a4.48,4.48,0,0,1,5,0C51,69.85,53.49,71.05,56.14,72.42ZM46,38.26a5.07,5.07,0,1,0,5.09,5A5.09,5.09,0,0,0,46,38.26Z"/></g></g></svg>