<svg xmlns="http://www.w3.org/2000/svg" viewBox="0 0 73.64 73.18"><defs><style>.cls-1{fill:#fff;}</style></defs><g id="圖層_2" data-name="圖層 2"><g id="圖層_1-2" data-name="圖層 1"><path class="cls-1" d="M0,40.35v-7c.09-.44.19-.87.25-1.32a36.88,36.88,0,0,1,72.09-5c.57,2.07.87,4.2,1.3,6.3v7c-.09.44-.19.87-.25,1.31A36.9,36.9,0,0,1,44.55,72.89c-.58.12-1.17.18-1.85.29a10.87,10.87,0,0,1-.11-1.11c0-7.78,0-15.56,0-23.33,0-1,.37-1.25,1.27-1.24,2,0,4,0,6,0,1,0,1.43-.34,1.56-1.32.36-2.69.74-5.38,1.22-8.05.2-1.11-.12-1.42-1.18-1.4-2.49.05-5,0-7.47,0-1.11,0-1.45-.37-1.41-1.44.07-1.81,0-3.62,0-5.44,0-3.57,2.1-5.62,5.65-5.68,1.32,0,2.64,0,4,0,.61,0,1-.13,1-.87,0-2.49,0-5,0-7.47a1.18,1.18,0,0,0-.76-.86,54.88,54.88,0,0,0-8.56-.57c-7.65.51-11.7,4.48-12.71,12.06a25.9,25.9,0,0,0-.1,3q-.09,3.5-.19,7l-7,.22a6.91,6.91,0,0,1-.91,0c-.9-.07-1.29.28-1.28,1.24q.08,4.13,0,8.27c0,.95.39,1.25,1.28,1.24,2.15,0,4.31,0,6.46,0,1.58,0,1.59,0,1.59,1.57q0,11.33,0,22.65c0,.44-.05.88-.09,1.44-.66-.09-1.22-.13-1.76-.26C15,69.45,5.64,60.75,1.33,46.75.69,44.68.44,42.48,0,40.35Z"/></g></g></svg>