<svg xmlns="http://www.w3.org/2000/svg" viewBox="0 0 69.14 69.12"><defs><style>.cls-1{fill:#fff;fill-rule:evenodd;}</style></defs><g id="圖層_2" data-name="圖層 2"><g id="圖層_1-2" data-name="圖層 1"><path class="cls-1" d="M34.5,69.06c-5.09,0-10.19.17-15.27,0-6.82-.3-12.55-2.9-16.26-9A19.48,19.48,0,0,1,.13,50C0,39.7-.11,29.4.16,19.12.35,11.94,3.35,6.06,10,2.49A19.71,19.71,0,0,1,19.15.12C29.44,0,39.74-.11,50,.15c7.18.19,13.06,3.2,16.63,9.79A19.58,19.58,0,0,1,69,19c.1,10.32.23,20.66,0,31-.19,7.13-3.17,13-9.7,16.57A20.44,20.44,0,0,1,49.77,69C44.69,69.13,39.59,69.06,34.5,69.06ZM63.12,34.65c-.13-5.16-.21-10.28-.4-15.41-.27-7.46-5.13-12.61-12.58-12.77-10.39-.22-20.8-.11-31.19,0a12.91,12.91,0,0,0-6.81,2C8.23,11,6.62,14.8,6.46,19.2c-.25,6.35-.32,12.72-.3,19.08a124.48,124.48,0,0,0,.53,13.39c.59,5.3,3.53,9,8.86,10.36a31.2,31.2,0,0,0,7.33.87c9,0,18,0,26.94-.2,7.59-.15,12.64-5.25,12.91-12.82C62.9,44.8,63,39.71,63.12,34.65Z"/><path class="cls-1" d="M52.45,34.56A17.88,17.88,0,1,1,34.54,16.69,17.92,17.92,0,0,1,52.45,34.56Zm-6.31,0a11.57,11.57,0,1,0-11.56,11.6A11.62,11.62,0,0,0,46.14,34.54Z"/><path class="cls-1" d="M53,20.19A4.06,4.06,0,0,1,49,16a4.16,4.16,0,1,1,8.31.09A4.07,4.07,0,0,1,53,20.19Z"/></g></g></svg>