<svg xmlns="http://www.w3.org/2000/svg" viewBox="0 0 93.85 93.85"><defs><style>.cls-1,.cls-2{fill:#fff;}.cls-2{fill-rule:evenodd;}</style></defs><g id="圖層_2" data-name="圖層 2"><g id="圖層_1-2" data-name="圖層 1"><path class="cls-1" d="M45.82,0H48a11.81,11.81,0,0,1,6,3.5c1.22,1.15,2.54,2.2,3.76,3.36a2.2,2.2,0,0,0,1.88.63c3.16-.28,6.33-.51,9.5-.74a8.19,8.19,0,0,1,9.12,6.68c.61,2.58,1.21,5.17,1.88,7.73a1.94,1.94,0,0,0,.8,1.1c2.89,1.78,5.8,3.5,8.71,5.24a8.19,8.19,0,0,1,4,5.53,4.4,4.4,0,0,0,.18.51v2.38c-.28.8-.53,1.61-.84,2.38-1.06,2.62-2.17,5.23-3.2,7.86a2.13,2.13,0,0,0,0,1.43c1.32,3.45,2.69,6.89,4,10.33V60.3c0,.08-.13.15-.14.23a8.34,8.34,0,0,1-4.26,5.87Q85.19,68.9,81,71.49a2.09,2.09,0,0,0-.85,1.17c-.65,2.47-1.22,5-1.83,7.45-1.21,5-4.6,7.36-9.66,6.91q-4.61-.4-9.21-.69a2.12,2.12,0,0,0-1.36.47c-1.39,1.14-2.76,2.33-4.07,3.56a12.09,12.09,0,0,1-6,3.49h-2.2a12,12,0,0,1-6-3.5c-1.34-1.24-2.73-2.44-4.14-3.6a2,2,0,0,0-1.29-.42c-3.32.21-6.64.53-10,.72a8.17,8.17,0,0,1-8.87-6.67c-.61-2.57-1.21-5.16-1.88-7.72a2.24,2.24,0,0,0-.9-1.23C9.94,69.67,7.05,68,4.17,66.25a8.14,8.14,0,0,1-4-5.63A1.54,1.54,0,0,0,0,60.3V57.92c.34-1,.64-2,1-2.9,1-2.51,2.07-5,3.06-7.51a2,2,0,0,0,0-1.27C2.75,42.79,1.37,39.36,0,35.92V33.36a.78.78,0,0,0,.15-.22,8.4,8.4,0,0,1,4.33-5.82c2.51-1.45,5-2.92,7.46-4.45a2.56,2.56,0,0,0,1-1.28c1-3,1.9-6,2.83-9a8.2,8.2,0,0,1,8.66-5.89c3.28.25,6.57.5,9.85.77A1.92,1.92,0,0,0,35.94,7c1.29-1.21,2.68-2.32,4-3.54A11.73,11.73,0,0,1,45.82,0ZM25.29,12.29c-3.08-.19-3.71.25-4.48,2.71-1,3.17-2,6.33-3,9.51A4,4,0,0,1,15.92,27C13,28.62,10.19,30.34,7.33,32c-1.84,1.1-2.23,2.22-1.4,4.22,1.24,3,2.47,6,3.75,9a3.76,3.76,0,0,1,0,3.18c-1.26,3-2.47,6-3.71,9-.87,2.12-.52,3.19,1.43,4.35,3.15,1.87,6.28,3.77,9.44,5.61a3.73,3.73,0,0,1,1.89,2.55C19.42,73,20.15,76.06,21,79.1A3.42,3.42,0,0,0,22.17,81a4.22,4.22,0,0,0,2.42.49c3.53-.22,7.06-.51,10.59-.83a3.91,3.91,0,0,1,3.18,1c2.11,1.91,4.26,3.77,6.4,5.64,1.52,1.33,2.81,1.33,4.3,0,2.09-1.83,4.22-3.63,6.25-5.52a4.28,4.28,0,0,1,3.59-1.14c3.53.34,7.06.59,10.6.84,2,.14,3-.6,3.45-2.59.72-3,1.48-6,2.15-9a3.64,3.64,0,0,1,1.82-2.49c3.2-1.9,6.39-3.82,9.59-5.73,1.85-1.11,2.23-2.25,1.42-4.22-1.23-3-2.44-6-3.72-9a4,4,0,0,1,0-3.42c1.26-2.91,2.43-5.86,3.64-8.79.89-2.16.54-3.21-1.48-4.42q-4.78-2.88-9.59-5.73a3.35,3.35,0,0,1-1.66-2.28c-.72-3.09-1.47-6.18-2.22-9.26-.43-1.74-1.48-2.59-3.11-2.47q-5.81.42-11.6.89a3.34,3.34,0,0,1-2.68-.89c-2.11-1.89-4.25-3.76-6.38-5.65-1.58-1.4-2.85-1.41-4.44,0l-6.46,5.71a3.25,3.25,0,0,1-2.6.84C32,12.79,28.4,12.53,25.29,12.29Z"/><path class="cls-2" d="M16.68,46.93A30.24,30.24,0,1,1,46.86,77.16,30.29,30.29,0,0,1,16.68,46.93ZM46.93,22.18A24.74,24.74,0,1,0,71.66,47,24.79,24.79,0,0,0,46.93,22.18Z"/><path class="cls-2" d="M44.18,51.23c.28-.26.52-.48.76-.72Q51.68,43.78,58.41,37A3,3,0,0,1,61.1,36a2.72,2.72,0,0,1,1.82,4.23,5.17,5.17,0,0,1-.72.83L46.52,56.71c-1.61,1.61-3.07,1.62-4.67,0L31.36,46.24a2.7,2.7,0,0,1-.8-2.84,2.6,2.6,0,0,1,2-1.9,2.81,2.81,0,0,1,2.73.92l8.1,8.1C43.65,50.75,43.9,51,44.18,51.23Z"/></g></g></svg>