<svg xmlns="http://www.w3.org/2000/svg" viewBox="0 0 70.36 49.55"><defs><style>.cls-1{fill:#fff;fill-rule:evenodd;}</style></defs><g id="圖層_2" data-name="圖層 2"><g id="圖層_1-2" data-name="圖層 1"><path class="cls-1" d="M35.47,49.55c-7.79-.25-15.58-.46-23.37-.78a21.58,21.58,0,0,1-4.9-.84A7.59,7.59,0,0,1,2,43.25,22,22,0,0,1,.52,36.7,132.09,132.09,0,0,1,.78,10.55a19.23,19.23,0,0,1,.85-3.38A8.48,8.48,0,0,1,9.77.83Q19.38.28,29,.09,43.87-.24,58.7.65a20.34,20.34,0,0,1,3.9.53,8.3,8.3,0,0,1,5.75,5A24.84,24.84,0,0,1,70,14.43a127,127,0,0,1-.37,23.88,19,19,0,0,1-1.46,5.28c-1.45,3.33-4.31,4.87-7.81,5-7.82.35-15.64.54-23.46.8-.47,0-.93,0-1.4,0A.66.66,0,0,1,35.47,49.55ZM28,33.82l19-9.83L28,14.1Z"/></g></g></svg>