<svg xmlns="http://www.w3.org/2000/svg" viewBox="0 0 144.36 50.46"><defs><style>.cls-1{fill:#f1f1f1;}</style></defs><g id="圖層_2" data-name="圖層 2"><g id="圖層_1-2" data-name="圖層 1"><path class="cls-1" d="M2.51,42a3,3,0,0,1,1.13-.59,5.39,5.39,0,0,1,2.25-.13A9.45,9.45,0,0,1,7,41.51l.26.06,0-.26c0-.36-.06-.63-.07-.8v-.15l-.15,0A9.08,9.08,0,0,0,3,40.41a4.32,4.32,0,0,0-1.61.83,3.4,3.4,0,0,0-1,1.36A4.21,4.21,0,0,0,0,44.24a3.8,3.8,0,0,0,.3,1.51,3.16,3.16,0,0,0,1,1.24,4.35,4.35,0,0,0,1.52.76,6.74,6.74,0,0,0,1.8.24,13.57,13.57,0,0,0,2.26-.21l.13,0,0-.13a8.07,8.07,0,0,1,.15-.82l.06-.29-.28.07a6.39,6.39,0,0,1-3.57.13,3.13,3.13,0,0,1-1-.55,2.28,2.28,0,0,1-.62-.88,3.12,3.12,0,0,1-.2-1.11A3,3,0,0,1,1.76,43,2.76,2.76,0,0,1,2.51,42Z"/><path class="cls-1" d="M14,42.47a2.45,2.45,0,0,0-.89-.36,5,5,0,0,0-1.74-.06,5.13,5.13,0,0,0-.58.13,2.53,2.53,0,0,0-.44.18,4.25,4.25,0,0,0-.39.25,1.34,1.34,0,0,0-.21.2l.17-2.56H8.44l0,2-.15,3.15-.16,2.51h.19l.58,0,.51,0h.18V47.7c0-.86.06-1.47.07-1.83a9,9,0,0,1,.15-1.37,2.32,2.32,0,0,1,.21-.59,1.41,1.41,0,0,1,.37-.43,1.74,1.74,0,0,1,.56-.29,2.91,2.91,0,0,1,1.68,0,1,1,0,0,1,.5.36,1.13,1.13,0,0,1,.15.61c0,.32,0,.89-.09,1.69S13,47.28,13,47.67l0,.21h.21l.58,0,.54,0h.19V47.7c0-.3,0-.56,0-.77l.1-2c0-.29,0-.55.05-.77v-.36a2,2,0,0,0-.13-.73A1.42,1.42,0,0,0,14,42.47Z"/><path class="cls-1" d="M20.76,42.4a2.54,2.54,0,0,0-.87-.31,8.1,8.1,0,0,0-2.16,0c-.37,0-.81.13-1.31.24l-.12,0,0,.13a6.62,6.62,0,0,1-.11.67l-.08.32.31-.11c.3-.1.55-.17.75-.22a5.36,5.36,0,0,1,.71-.13,5,5,0,0,1,1.51,0,1,1,0,0,1,.44.22.43.43,0,0,1,.14.31.4.4,0,0,1,0,.15.51.51,0,0,1-.11.16.7.7,0,0,1-.16.14,1,1,0,0,1-.23.11l-.33.1c-.12,0-.27.07-.45.11l-1.24.28-.68.21a3.64,3.64,0,0,0-.59.3,1.81,1.81,0,0,0-.44.36,1.49,1.49,0,0,0-.26.42,1.36,1.36,0,0,0-.1.51,1.5,1.5,0,0,0,1.07,1.44,4,4,0,0,0,1.38.18h.55c.2,0,.46,0,.76-.1l.11,0,0-.11c.08-.27.14-.48.19-.61l.14-.34-.35.1a5.26,5.26,0,0,1-.73.15,3.25,3.25,0,0,1-1.2,0,.78.78,0,0,1-.41-.24.54.54,0,0,1-.15-.38.67.67,0,0,1,.06-.28.81.81,0,0,1,.18-.21,2,2,0,0,1,.38-.23,4.27,4.27,0,0,1,.65-.23l.66-.17.65-.15.31-.1.27-.12,0,0-.08,1.37-.14,1.65h.2l.56,0,.54,0h.18V47.7c0-.39,0-.83,0-1.3s.05-1,.09-1.6.07-1,.07-1.24a1.56,1.56,0,0,0-.12-.62A1.21,1.21,0,0,0,20.76,42.4Z"/><path class="cls-1" d="M28.43,42.52a2.09,2.09,0,0,0-.89-.4,4.68,4.68,0,0,0-2.27,0,2.77,2.77,0,0,0-.54.21,2.24,2.24,0,0,0-.39.27,1,1,0,0,0-.15.14l0-.66H22.77v.19c0,1.34-.11,3.16-.31,5.37l0,.2h.2l.58,0,.53,0h.18V47.7c0-1.21.06-2.09.13-2.64a2.88,2.88,0,0,1,.23-1,1.57,1.57,0,0,1,.66-.69,2.17,2.17,0,0,1,1.14-.28,2.35,2.35,0,0,1,.86.15.92.92,0,0,1,.5.36,1.16,1.16,0,0,1,.16.64c0,.22,0,.53,0,1l-.08,1.24q0,.59-.09,1.23l0,.21h.2a9.7,9.7,0,0,1,1.08,0h.19V47.7c0-.31,0-.56,0-.78L29,44.7c0-.22,0-.39,0-.52V43.9a2.19,2.19,0,0,0-.11-.73A1.5,1.5,0,0,0,28.43,42.52Z"/><path class="cls-1" d="M34.2,42a6.88,6.88,0,0,0-1.63.19,3.69,3.69,0,0,0-1.37.65A3,3,0,0,0,30.26,44,3.47,3.47,0,0,0,30,45.44a2.78,2.78,0,0,0,.21,1.06,2.24,2.24,0,0,0,.64.87,2.6,2.6,0,0,0,.94.47,4.15,4.15,0,0,0,1.89.06,3.44,3.44,0,0,0,.66-.2,2.84,2.84,0,0,0,.52-.3,2.38,2.38,0,0,0,.28-.26A8.31,8.31,0,0,1,35,48a2.32,2.32,0,0,1-.2.71.93.93,0,0,1-.28.31,1.71,1.71,0,0,1-.56.26,4.66,4.66,0,0,1-1.89,0,11.93,11.93,0,0,1-1.34-.29L30.5,49l0,.25c0,.24,0,.4.05.47l0,.43.14,0a11.23,11.23,0,0,0,1.32.2,12,12,0,0,0,1.21.06,6.25,6.25,0,0,0,.87-.06,3.78,3.78,0,0,0,.74-.17,2.48,2.48,0,0,0,.5-.2,1.92,1.92,0,0,0,.41-.31,1.52,1.52,0,0,0,.31-.36,2.17,2.17,0,0,0,.22-.46,3,3,0,0,0,.12-.66l0-1.1c0-.68,0-1,0-1.09l.18-3,.09-.82-.17,0A15.92,15.92,0,0,0,34.2,42Zm1.07,1.13c0,.89-.06,1.46-.09,1.75a3.47,3.47,0,0,1-.17.83,2.06,2.06,0,0,1-.43.69,1.83,1.83,0,0,1-.63.42,2.37,2.37,0,0,1-.83.14,2.26,2.26,0,0,1-1-.2,1.26,1.26,0,0,1-.6-.56,1.88,1.88,0,0,1-.2-.86,2.28,2.28,0,0,1,.23-1,2.15,2.15,0,0,1,.61-.78,2.36,2.36,0,0,1,.88-.41A4.58,4.58,0,0,1,34.16,43,7.31,7.31,0,0,1,35.27,43.13Z"/><path class="cls-1" d="M46.57,40.71a1.92,1.92,0,0,0-.73-.36,5.17,5.17,0,0,0-1.21-.11H41.41V41c0,.14,0,.28,0,.42l-.22,5-.12,1.41h.2l.58,0,.76,0v-.79c0-.27,0-.82,0-1.65l.06-1.69h0a5.45,5.45,0,0,1,.2.64l0,.12h.12a4.76,4.76,0,0,0,2.6-.19,2.47,2.47,0,0,0,1.16-.85,2.15,2.15,0,0,0,.43-1.32,1.86,1.86,0,0,0-.18-.82A2,2,0,0,0,46.57,40.71Zm-3.84,2.54c0-.58.05-1.21.1-1.94h1.48a4.26,4.26,0,0,1,.73.05,1.28,1.28,0,0,1,.4.15.76.76,0,0,1,.26.3.87.87,0,0,1,.1.42,1.24,1.24,0,0,1-.54,1,1.66,1.66,0,0,1-.62.26,4.56,4.56,0,0,1-1.73,0l-.19,0Z"/><path class="cls-1" d="M48.13,42.12l-.05,1.94L48,46.34l-.13,1.54H48l.59,0,.56,0h.18V47.7c0-.4,0-1,0-1.67s.05-1.38.09-2,.08-1.18.12-1.74l0-.2h-1.5Z"/><path class="cls-1" d="M48.34,40.21h-.19v.18c0,.17,0,.42,0,.75v.19h1.53v-.18c0-.38,0-.64,0-.74V40.2h-.2C49.21,40.22,48.85,40.23,48.34,40.21Z"/><path class="cls-1" d="M56.6,42.52a2.1,2.1,0,0,0-.88-.4A4.9,4.9,0,0,0,54.05,42a5.07,5.07,0,0,0-.61.12,2.66,2.66,0,0,0-.53.21,2.33,2.33,0,0,0-.4.27l-.15.14,0-.66H50.94v.19c0,1.34-.11,3.16-.31,5.37v.2h.2l.57,0,.53,0h.18V47.7c0-1.21.06-2.09.13-2.64a3.13,3.13,0,0,1,.23-1,1.63,1.63,0,0,1,.66-.69,2.2,2.2,0,0,1,1.15-.28,2.3,2.3,0,0,1,.85.15.92.92,0,0,1,.5.36,1.08,1.08,0,0,1,.16.64c0,.22,0,.53,0,1l-.08,1.24q0,.59-.09,1.23l0,.21h.21a9.69,9.69,0,0,1,1.08,0H57V47.7c0-.31,0-.56,0-.78l.13-2.22c0-.22,0-.39,0-.52s0-.23,0-.28a2.19,2.19,0,0,0-.12-.73A1.43,1.43,0,0,0,56.6,42.52Z"/><path class="cls-1" d="M62.37,42a6.88,6.88,0,0,0-1.63.19,3.69,3.69,0,0,0-1.37.65A3,3,0,0,0,58.44,44a3.48,3.48,0,0,0-.32,1.45,2.78,2.78,0,0,0,.21,1.06,2.17,2.17,0,0,0,.65.87,2.45,2.45,0,0,0,.94.47,4.1,4.1,0,0,0,1.88.06,3.79,3.79,0,0,0,.67-.2,2.74,2.74,0,0,0,.51-.3,1.79,1.79,0,0,0,.28-.26c0,.51,0,.77-.06.9a2.62,2.62,0,0,1-.21.71.84.84,0,0,1-.28.31,1.71,1.71,0,0,1-.56.26,4.62,4.62,0,0,1-1.88,0,12,12,0,0,1-1.35-.29L58.67,49l0,.25c0,.24.05.4.05.47l0,.43.13,0a11.06,11.06,0,0,0,1.33.2,11.76,11.76,0,0,0,1.2.06,6.15,6.15,0,0,0,.87-.06,3.78,3.78,0,0,0,.74-.17,2.48,2.48,0,0,0,.5-.2,1.92,1.92,0,0,0,.41-.31,1.32,1.32,0,0,0,.31-.36,1.78,1.78,0,0,0,.22-.46,3,3,0,0,0,.12-.66l0-1.1c0-.68,0-1,0-1.09l.18-3,.09-.82-.17,0A15.92,15.92,0,0,0,62.37,42Zm1.07,1.13c0,.89-.06,1.46-.09,1.75a3.47,3.47,0,0,1-.17.83,1.91,1.91,0,0,1-.43.69,1.74,1.74,0,0,1-.63.42,2.37,2.37,0,0,1-.83.14,2.26,2.26,0,0,1-1-.2,1.24,1.24,0,0,1-.59-.56,1.88,1.88,0,0,1-.2-.86,2.27,2.27,0,0,1,.22-1,2.07,2.07,0,0,1,.62-.78,2.22,2.22,0,0,1,.88-.41A4.52,4.52,0,0,1,62.34,43,7.29,7.29,0,0,1,63.44,43.13Z"/><path class="cls-1" d="M69.74,40.25h-.19v.61c0,.2,0,.43,0,.7L69.37,46c0,.25,0,.49-.05.71l-.09,1.17h.2l.62,0,.79,0V47.7c0-.89,0-1.94.06-3.14l1.54,0,1.92,0h.19v-.19c0-.22,0-.45,0-.71l0-.2H71L71,41.33h1.64c1,0,1.69,0,2.2,0h.2v-.19a6.12,6.12,0,0,1,0-.73l0-.2H69.74Z"/><path class="cls-1" d="M79.81,42.23v-.14l-.14,0a2.88,2.88,0,0,0-1.17,0,2.37,2.37,0,0,0-.55.18,2,2,0,0,0-.44.31l-.07.07,0-.51h-.2a8.81,8.81,0,0,1-1,0h-.19v.68c0,1.21-.08,2.86-.22,4.88l0,.2H76l.56,0,.53,0h.19v-.54c0-.53,0-1,0-1.52,0-.64.06-1.09.1-1.33a1.77,1.77,0,0,1,.18-.55,1.38,1.38,0,0,1,.33-.45,1.34,1.34,0,0,1,.47-.28,2.13,2.13,0,0,1,1.24,0l.24.06,0-.25C79.83,42.72,79.82,42.46,79.81,42.23Z"/><path class="cls-1" d="M80.8,40.21h-.18v.18c0,.17,0,.42,0,.75v.19h1.54v-.18c0-.38,0-.64,0-.74l0-.21H82C81.67,40.22,81.31,40.23,80.8,40.21Z"/><path class="cls-1" d="M80.6,42.12l-.06,1.94-.12,2.28-.12,1.54h.2l.59,0,.55,0h.19V47.7c0-.4,0-1,0-1.67s0-1.38.09-2,.08-1.18.13-1.74l0-.2H80.6Z"/><path class="cls-1" d="M88.38,42.62a2.29,2.29,0,0,0-.92-.47A4.2,4.2,0,0,0,86.34,42a4,4,0,0,0-1.89.41,2.72,2.72,0,0,0-1.13,1.15A3.25,3.25,0,0,0,83,45.11a3.33,3.33,0,0,0,.2,1.14,2.49,2.49,0,0,0,.68,1,2.62,2.62,0,0,0,1.13.6,5.8,5.8,0,0,0,1.43.16c.29,0,.59,0,.89,0a8.27,8.27,0,0,0,1-.18l.12,0,0-.12c0-.3.1-.54.14-.73l.08-.31-.3.09a4.31,4.31,0,0,1-3,.1,1.49,1.49,0,0,1-.72-.63,1.81,1.81,0,0,1-.25-.94c0-.07,0-.16,0-.27h4.7l0-.14a1.9,1.9,0,0,0,0-.41,2.55,2.55,0,0,0-.2-1A2.21,2.21,0,0,0,88.38,42.62Zm-3.87,1.52a2.3,2.3,0,0,1,.09-.25,1.57,1.57,0,0,1,.23-.34,1.42,1.42,0,0,1,.37-.31,2.18,2.18,0,0,1,.51-.22,2.52,2.52,0,0,1,1.19,0,1.16,1.16,0,0,1,.42.19.82.82,0,0,1,.27.29,1.07,1.07,0,0,1,.14.34,1.82,1.82,0,0,1,0,.3Z"/><path class="cls-1" d="M95.63,40.26h-.76v.19c0,.23,0,.52,0,.89,0,.21,0,.46,0,.75A10,10,0,0,0,93.74,42a6.81,6.81,0,0,0-1.52.17,3.57,3.57,0,0,0-1.32.62A3.07,3.07,0,0,0,90,43.93a3.36,3.36,0,0,0-.32,1.4,3.21,3.21,0,0,0,.17,1,2.27,2.27,0,0,0,.57.88,2.59,2.59,0,0,0,1,.57,3.54,3.54,0,0,0,1.19.19,4,4,0,0,0,.7-.06,3.63,3.63,0,0,0,.61-.19,2.64,2.64,0,0,0,.48-.28,2.18,2.18,0,0,0,.35-.32l0,.74h1.42v-1l.12-3.44.19-3.2h-.75Zm-.82,2.84,0,.8c0,.49,0,.82,0,1a4.06,4.06,0,0,1-.15.81,2.08,2.08,0,0,1-.31.57,1.68,1.68,0,0,1-.4.4,1.89,1.89,0,0,1-.48.21,2.1,2.1,0,0,1-.59.08,2,2,0,0,1-.94-.22,1.32,1.32,0,0,1-.58-.59,1.89,1.89,0,0,1-.19-.85,2.52,2.52,0,0,1,.2-.94,2.1,2.1,0,0,1,.59-.78,2.45,2.45,0,0,1,.88-.45A4.28,4.28,0,0,1,93.85,43l.49,0A3.85,3.85,0,0,1,94.81,43.1Z"/><path class="cls-1" d="M102.94,42a3,3,0,0,1,1.12-.59,5.44,5.44,0,0,1,2.26-.13,9.45,9.45,0,0,1,1.14.24l.26.06,0-.26c0-.36-.06-.63-.07-.8v-.15l-.15,0a9.08,9.08,0,0,0-4.09.08,4.44,4.44,0,0,0-1.62.83,3.47,3.47,0,0,0-1,1.36,4.21,4.21,0,0,0-.33,1.64,3.8,3.8,0,0,0,.3,1.51,3.16,3.16,0,0,0,1,1.24,4.26,4.26,0,0,0,1.52.76A6.66,6.66,0,0,0,105,48a13.59,13.59,0,0,0,2.27-.21l.13,0,0-.13a8.07,8.07,0,0,1,.15-.82l.06-.29-.28.07a6.39,6.39,0,0,1-3.57.13,3.13,3.13,0,0,1-1-.55,2.28,2.28,0,0,1-.62-.88,2.92,2.92,0,0,1-.2-1.11,3,3,0,0,1,.25-1.22A2.76,2.76,0,0,1,102.94,42Z"/><path class="cls-1" d="M114.43,42.47a2.45,2.45,0,0,0-.89-.36,5.06,5.06,0,0,0-1.74-.06,5.13,5.13,0,0,0-.58.13,2.24,2.24,0,0,0-.44.18,3.22,3.22,0,0,0-.39.25,1.34,1.34,0,0,0-.21.2l.17-2.56h-1.48l-.05,2-.14,3.15-.16,2.51h.19l.57,0,.52,0H110V47.7c0-.86.06-1.47.07-1.83a9,9,0,0,1,.15-1.37,2.32,2.32,0,0,1,.21-.59,1.41,1.41,0,0,1,.37-.43,1.74,1.74,0,0,1,.56-.29,2.88,2.88,0,0,1,1.67,0,1,1,0,0,1,.51.36,1.13,1.13,0,0,1,.15.61c0,.32,0,.89-.09,1.69s-.11,1.41-.16,1.8l0,.21h.21l.58,0,.55,0h.18V47.7c0-.3,0-.56,0-.77l.11-2c0-.29,0-.55,0-.77v-.36a2,2,0,0,0-.13-.73A1.42,1.42,0,0,0,114.43,42.47Z"/><path class="cls-1" d="M116.72,40.21h-.19v.18c0,.17,0,.42,0,.75v.19H118v-.18c0-.38,0-.64,0-.74V40.2h-.2C117.59,40.22,117.23,40.23,116.72,40.21Z"/><path class="cls-1" d="M116.51,42.12l-.05,1.94-.13,2.28-.12,1.54h.2l.59,0,.55,0h.19V47.7c0-.4,0-1,0-1.67s.06-1.38.09-2,.08-1.18.13-1.74l0-.2h-1.5Z"/><path class="cls-1" d="M120.82,43.64a1.91,1.91,0,0,1,.67-.44,3,3,0,0,1,1.57-.1,7,7,0,0,1,.94.21l.25.07,0-.27c0-.19,0-.44-.06-.74v-.13l-.13,0a7.37,7.37,0,0,0-1.76-.21,4,4,0,0,0-2,.43,2.59,2.59,0,0,0-1.09,1.18,3.81,3.81,0,0,0-.34,1.56,3.22,3.22,0,0,0,.21,1.16,2.32,2.32,0,0,0,.67,1,2.67,2.67,0,0,0,1.06.54,4.72,4.72,0,0,0,1.28.16,6.71,6.71,0,0,0,.74,0,7.43,7.43,0,0,0,.9-.12l.12,0,0-.12a3.43,3.43,0,0,1,.09-.44c0-.17.06-.28.06-.34l0-.27-.26.07a3.71,3.71,0,0,1-2.62,0,1.26,1.26,0,0,1-.66-.62,2.1,2.1,0,0,1-.21-1,3,3,0,0,1,.13-.83A1.74,1.74,0,0,1,120.82,43.64Z"/><path class="cls-1" d="M127.87,44.71l2.89-2.59h-1.83l-.06.07c-.39.41-.81.82-1.24,1.21l-1,.94q0-.27,0-.57c.08-1.63.14-2.75.19-3.32l0-.2h-1.49v.19c0,.11,0,.27,0,.47l-.07,2.58-.12,2.75L125,47.88h.2l.56,0,.53,0h.18V47.7c0-.71,0-1.58.08-2.65l1.07,1.12.57.61,1,1.1h.09l.63,0,.61,0H131l-.32-.32C129.32,46.25,128.39,45.29,127.87,44.71Z"/><path class="cls-1" d="M136.35,42.62a2.29,2.29,0,0,0-.92-.47A4.22,4.22,0,0,0,134.3,42a3.93,3.93,0,0,0-1.88.41,2.72,2.72,0,0,0-1.13,1.15,3.25,3.25,0,0,0-.37,1.55,3.33,3.33,0,0,0,.19,1.14,2.51,2.51,0,0,0,.69,1,2.62,2.62,0,0,0,1.13.6,5.69,5.69,0,0,0,1.43.16c.29,0,.59,0,.89,0a8.58,8.58,0,0,0,1.05-.18l.12,0,0-.12a6,6,0,0,1,.14-.73l.08-.31-.3.09a4.31,4.31,0,0,1-3,.1,1.51,1.51,0,0,1-.73-.63,1.91,1.91,0,0,1-.25-.94c0-.07,0-.16,0-.27h4.69l0-.14a1.92,1.92,0,0,0,0-.41,2.39,2.39,0,0,0-.21-1A2.07,2.07,0,0,0,136.35,42.62Zm-3.87,1.52a2.3,2.3,0,0,1,.09-.25,1.5,1.5,0,0,1,.22-.34,1.6,1.6,0,0,1,.37-.31,2.26,2.26,0,0,1,.52-.22,2.52,2.52,0,0,1,1.19,0,1.35,1.35,0,0,1,.42.19,1.06,1.06,0,0,1,.27.29,1.36,1.36,0,0,1,.14.34c0,.08,0,.17,0,.3Z"/><path class="cls-1" d="M143.76,42.52a2.21,2.21,0,0,0-.89-.4A4.87,4.87,0,0,0,141.2,42a5.07,5.07,0,0,0-.61.12,2.93,2.93,0,0,0-.53.21,2.33,2.33,0,0,0-.4.27l-.15.14.05-.66h-1.47v.19c0,1.34-.11,3.16-.31,5.37v.2h.2l.57,0,.53,0h.19V47.7c0-1.21.07-2.09.13-2.64a3.44,3.44,0,0,1,.23-1,1.63,1.63,0,0,1,.66-.69,2.2,2.2,0,0,1,1.15-.28,2.3,2.3,0,0,1,.85.15,1,1,0,0,1,.51.36,1.17,1.17,0,0,1,.15.64c0,.22,0,.53,0,1l-.08,1.24q0,.59-.09,1.23l0,.21h.21a9.69,9.69,0,0,1,1.08,0h.19V47.7c0-.31,0-.56,0-.78l.12-2.22c0-.22,0-.39,0-.52s0-.23,0-.28a2.19,2.19,0,0,0-.12-.73A1.4,1.4,0,0,0,143.76,42.52Z"/><path class="cls-1" d="M.73,21.82q11.15-1.52,22.33-2.64c1.83-.18,2.74-1.37,2.74-3.59L25.7,4.3C17.29,5.75,9,7.5.73,9.56V21.82ZM21.07,15c0,.55-.23.86-.7.91q-7.5.91-15,2.1V16.38Q13.2,15,21.06,14C21.06,14.41,21.07,14.6,21.07,15ZM21,8.65c0,.78,0,1.17,0,1.95q-7.86,1.19-15.65,2.72V11.57Q13.15,9.92,21,8.65Z"/><path class="cls-1" d="M26.32,33.69q-.06-6.46-.13-12.94Q13.26,21.85.4,23.43V37H23.57C25.4,37,26.32,35.91,26.32,33.69ZM5.1,26.37q8.19-.72,16.4-1.28c0,.81,0,1.22,0,2q-8.22.47-16.42,1.06Zm15.77,6.72q-7.88.18-15.75.41v-2q8.2-.37,16.43-.67c0,.58,0,.88,0,1.46S21.34,33.08,20.87,33.09Z"/><path class="cls-1" d="M56.23,23.32q-5.74.12-11.49.33Q44.66,15.33,44.61,7,50.33,6.54,56,6.26c0-2,0-3,0-5-9.25.59-18.42,1.54-27.6,2.86l.05,4.64Q34.14,8,39.85,7.42q.07,8.21.14,16.41-5.81.26-11.6.59c0,1.86,0,2.79,0,4.64,3.87-.15,7.73-.27,11.6-.38,0,3.34,0,5,.07,8.33h4.74c0-3.38,0-5.06-.06-8.44q5.73-.13,11.48-.21C56.25,26.34,56.24,25.33,56.23,23.32Z"/><path class="cls-1" d="M35.43,19.13c.77-3.53,1.15-5.31,1.91-8.89-1.9.18-2.85.28-4.74.48-.49,2.23-.74,3.33-1.23,5.53-.13.71-.47,1.09-1,1.14l-1.64.14c.29,1.83.43,2.75.72,4.59l3.12-.2C34,21.83,35,20.9,35.43,19.13Z"/><path class="cls-1" d="M53.28,15c-.49-2.36-.74-3.54-1.23-5.89-1.91.11-2.86.16-4.77.29.67,3.29,1,4.94,1.66,8.26q.64,3.39,2.84,3.33c1.64-.06,2.46-.08,4.1-.12,0-2,0-3,0-5l-1.56.06C53.75,15.93,53.42,15.64,53.28,15Z"/><path class="cls-1" d="M67.39,18.9c1.22,0,1.87-.88,2-2.62,0-1,0-1.51,0-2.53H72Q72,25.38,72,37h4.74c0-2.47,0-3.71,0-6.18l8.41.05c0-2,0-3,0-5.06-3.37-.05-5-.07-8.42-.09,0-2.24,0-3.37,0-5.62,3.37,0,5.06.05,8.43.13,0-2,0-3,0-5.06-3.37-.09-5.07-.13-8.45-.16,0-2.25,0-3.37,0-5.62,3.48,0,5.22.09,8.7.21,0-2,0-3,0-5-3.3-.15-5-.19-8.25-.25L78.38.07c-2,0-3-.06-5-.07-.84,3-1.26,4.49-2.09,7.48-.14.78-.49,1.17-1.06,1.17h-.77c0-2.74.06-4.1.11-6.84l-1.81,0-.36,11.78c0,.33-.2.49-.54.5h-.46c.26,1.91.39,2.87.64,4.79Z"/><path class="cls-1" d="M69.91,31.92h-.2a1,1,0,0,1-1-.83c-.58-3.37-.86-5.05-1.44-8.41H65.54l.37-1.55q0-10.55,0-21.08C64,.1,63,.13,61.08.2q0,9.93.07,19.84c-.93,4.3-1.4,6.44-2.32,10.72-.19.77-.45,1.18-.79,1.2h-.6l.65,5H61c.81,0,1.44-1,1.89-3S63.56,31.2,64,29.3c.29,1.77.44,2.66.73,4.44Q65.4,37,67.65,37h2.26Z"/><path class="cls-1" d="M60.12,19h.31c0-1.91,0-2.86,0-4.77-.31,0-.47-.19-.49-.59q-.36-5.78-.7-11.56l-1.81.08q.28,7.23.58,14.46C58.08,18.21,58.79,19,60.12,19Z"/><path class="cls-1" d="M99.66,8.5l-.25-.89c-1.27-.11-1.9-.15-3.17-.24.19,1.08.28,1.62.47,2.71a2.94,2.94,0,0,0,2.77,2.49l.92.06c0-1.38,0-2.07,0-3.45A.81.81,0,0,1,99.66,8.5Z"/><path class="cls-1" d="M95,7.87c0-.19-.08-.28-.14-.45-1.27-.09-1.9-.13-3.17-.2.14.91.22,1.37.36,2.28A2.9,2.9,0,0,0,94.81,12l1.37.08c0-1.39,0-2.09,0-3.48l-.43,0A.83.83,0,0,1,95,7.87Z"/><path class="cls-1" d="M88.33,11.52c1.32.05,2.25-.71,2.81-2.29.21-1.34.31-2,.51-3.35,2.45.15,3.67.23,6.11.43,1.85.14,2.79-1,2.82-3.33,0-.6,0-.91,0-1.52-1.63-.17-2.45-.24-4.09-.38v.14c0,.61-.24.9-.72.86-3.05-.25-4.58-.36-7.64-.53v0c-.24,1.92-.35,2.89-.59,4.82-.2.61-.51.91-1,.89h-.09c.25,1.68.37,2.51.61,4.18Z"/><path class="cls-1" d="M100.58,33H99.36c-.48,0-.77-.3-.88-.89a1.08,1.08,0,0,0,0-.18l-3.83-.05.58-1.32,5.36.1c0-1.61,0-2.42,0-4l-4.55-.13c0-.6,0-.9,0-1.5l1.76.05q2.76.09,2.82-3.46c0-.78,0-1.17,0-2l-3.16-.15v.59c0,.6-.25.9-.72.88l-.82,0c1.85-2.7,2.77-4,4.63-6.66-2.08-.14-3.13-.2-5.21-.31L94.25,15.6l-2.09-.09c.83-1.14,1.25-1.7,2.08-2.82-1.91-.11-2.86-.15-4.77-.23l-1.92,2.23c0,1.74,0,2.61,0,4.34,1.71,0,2.56.07,4.27.13-.42.62-.64.93-1.06,1.56L87,20.62c0,1.66,0,2.49,0,4.14,1.74,0,2.61,0,4.35.1,0,.6,0,.91,0,1.51l-4.47-.08c0,1.66,0,2.49,0,4.15l3.39,0c-.2.49-.3.73-.49,1.22a1.58,1.58,0,0,1-1.6,1.18H86.52c.27,1.66.4,2.49.67,4.14h3.57q1.9,0,2.82-2.61L94.16,33c.11.39.17.58.28,1C94.82,36,95.68,37,97,37h3.52C100.56,35.4,100.56,34.6,100.58,33Z"/><path class="cls-1" d="M100.78,11.06l1.25.1q-.09,11.7-.19,23.4c0,1,0,1.47,0,2.45h12.45c0-1.85,0-2.78,0-4.65l-1.88,0c0-1.68,0-2.53,0-4.21l1.65.07c0-1.87,0-2.8,0-4.66l-1.64-.1c0-1.57,0-2.36,0-3.93l1.64.13.05-4.66-1.65-.16c0-1.56,0-2.35,0-3.92l1.87.21c0-1.86,0-2.79,0-4.65l-1.87-.25c0-1.24,0-1.85,0-3.09-1.85-.27-2.77-.4-4.63-.64,0,1.26,0,1.89,0,3.15l-2.19-.25c.26-1.24.39-1.86.66-3.1-1.63-.2-2.45-.29-4.08-.47-.31,1.51-.46,2.27-.77,3.79a1,1,0,0,1-1,.85l-.52,0Zm5.79-.8,1.45.14c0,1.6,0,2.4,0,4l-1.45-.12C106.55,12.67,106.56,11.87,106.57,10.26Zm-.08,8.82,1.45.1c0,1.6,0,2.4,0,4-.58,0-.87-.05-1.45-.07C106.47,21.5,106.47,20.69,106.49,19.08Zm-.08,8.83,1.45.05c0,1.71,0,2.57,0,4.28l-1.45,0C106.39,30.49,106.4,29.63,106.41,27.91Z"/><path class="cls-1" d="M143.31,33.07c-4.52-.16-6.78-.24-11.31-.38,0-3.4,0-5.09.06-8.49,4.06.37,6.09.57,10.13,1V21.34c-4-.58-6.05-.85-10.1-1.35l0-8.24c4.27.78,6.39,1.2,10.62,2.12V10c-8.62-2.1-17.27-3.86-26-5.31l0,4.61c4.32.57,6.47.9,10.76,1.61,0,3.41,0,5.11-.07,8.52-4.12-.46-6.18-.68-10.32-1.05L117,23c4.14.29,6.21.44,10.33.79,0,3.51,0,5.26-.07,8.77-3.83-.11-7.65-.2-11.48-.29,0,1.85,0,2.77,0,4.62l27.56,0Z"/></g></g></svg>