<svg xmlns="http://www.w3.org/2000/svg" viewBox="0 0 35.64 17.15"><defs><style>.cls-1{fill:#e2007f;stroke:#fff;stroke-miterlimit:10;}</style></defs><g id="圖層_2" data-name="圖層 2"><g id="圖層_1-2" data-name="圖層 1"><path class="cls-1" d="M32.62,5.07a2.41,2.41,0,0,0-2.53,2.29,1.09,1.09,0,0,0,0,.18L22,9.48,19.19,4.7a2.22,2.22,0,0,0,1.16-1.91A2.41,2.41,0,0,0,17.82.5a2.42,2.42,0,0,0-2.53,2.29A2.22,2.22,0,0,0,16.45,4.7L13.63,9.48,5.53,7.54a3,3,0,0,0,0-.31A2.42,2.42,0,0,0,3,5,2.41,2.41,0,0,0,.5,7.23,2.42,2.42,0,0,0,3,9.52a2.66,2.66,0,0,0,1.69-.6L8.6,13.47v3.18H27V13.47L30.86,9a2.64,2.64,0,0,0,1.76.64,2.41,2.41,0,0,0,2.52-2.28A2.41,2.41,0,0,0,32.62,5.07Z"/></g></g></svg>