<svg xmlns="http://www.w3.org/2000/svg" viewBox="0 0 67.73 161.97"><defs><style>.cls-1{fill:#fff;}</style></defs><g id="圖層_2" data-name="圖層 2"><g id="圖層_1-2" data-name="圖層 1"><path class="cls-1" d="M5.11,161.11c8.17-7.26,16.42-14.54,23.56-22.85A93,93,0,0,0,38,125.47a79.65,79.65,0,0,0,6.83-15.77,67.27,67.27,0,0,0,3.39-16.36c.09-1.19,0-2.42.13-3.6s.52-2.59.69-3.88a31.87,31.87,0,0,0,.16-7.56,21.51,21.51,0,0,0-2.08-7.5A13.3,13.3,0,0,0,42.61,66c-3.52-2.38-7.94-3.25-12.12-3.36a38.81,38.81,0,0,0-12.06,1.68,15.41,15.41,0,0,0-4.68,2.14c-1.45,1-2.87,2.12-4.22,3.28C6.86,72,4,74.89,3.05,78.38c-1.12,4.09,1.33,7.6,5,9.23,4.26,1.88,9.16,1.19,13.5,0a57.32,57.32,0,0,0,7-2.54,40.53,40.53,0,0,0,5.69-2.79C42,77.31,49.69,71.76,55.42,64.43a46.77,46.77,0,0,0,7.39-13.3c1.55-4.38,3.27-8.73,4.09-13.41A52.2,52.2,0,0,0,63.62,8,41.83,41.83,0,0,0,60.1,1.48,3.06,3.06,0,0,0,56,.4a3,3,0,0,0-1.08,4.1,43.08,43.08,0,0,1,6.82,25.11,47.6,47.6,0,0,1-2.08,12.62c-.66,2.16-1.59,4.11-2.25,6.17A35.56,35.56,0,0,1,55,54.17c-3.88,7.41-10.05,13.32-16.74,18.15s-13.66,9-21.84,10.27a17.6,17.6,0,0,1-2.44.18,8.05,8.05,0,0,1-2.18-.2c-.25,0-.48-.12-.72-.19-.07,0-.64-.23-.33-.11s-.27-.13-.33-.16l-.55-.31a4.93,4.93,0,0,1-.61-.4c.09.07.4.32,0,0-.12-.11-.22-.24-.34-.35.25.25.2.25,0,0-.06-.08-.27-.51-.09-.11s-.06-.23-.05-.22.1-.73,0,.19c0-.13,0-.27,0-.4l0-.41c0,.16-.19.6,0,.17.08-.19.47-1.23.14-.56a14.67,14.67,0,0,1,1-1.71l.31-.42c-.32.42,0,0,0,0,.31-.35.61-.7.92-1a35.46,35.46,0,0,1,3.56-3.26l.53-.42c.37-.29-.34.26,0,0l.82-.61c.52-.38,1.14-.72,1.63-1.15.07-.06.42-.34.08-.11s.27-.11.34-.14l1-.36c.84-.27,1.69-.52,2.54-.73a33.11,33.11,0,0,1,4.83-.85,32.14,32.14,0,0,1,5.55,0,13,13,0,0,1,2.22.33,22.53,22.53,0,0,1,2.7.77,12,12,0,0,1,1.9.94,7.06,7.06,0,0,1,1.79,1.36,8.2,8.2,0,0,1,2.15,4.34,22,22,0,0,1,.48,6.19,27,27,0,0,1-.27,3,37.06,37.06,0,0,0-.7,3.9,64.41,64.41,0,0,1-2.08,14.54c-.68,2.44-1.48,4.85-2.36,7.22a66,66,0,0,1-3,7.34,73.42,73.42,0,0,1-7.56,11.77c-6.16,7.87-13.48,14.75-20.89,21.42l-5.63,5a3,3,0,0,0,0,4.24,3.06,3.06,0,0,0,4.24,0Z"/></g></g></svg>