<svg xmlns="http://www.w3.org/2000/svg" viewBox="0 0 261.76 18.96"><defs><style>.cls-1{fill:#fac500;opacity:0.11;}</style></defs><g id="圖層_2" data-name="圖層 2"><g id="圖層_1-2" data-name="圖層 1"><path class="cls-1" d="M11.93,7.89c12.9.44,25.78.25,38.69.31,28.39.13,56.78,0,85.17,0,41.3,0,82.59-.1,123.89.06a1.29,1.29,0,0,0-.48-1c-.83-1-1.69-2-2.57-3-.56-.62-2.47-3.4-3.61-3.43L242.64.72c-9.42-.22-18.83.21-28.25.15-28.34-.17-56.68-.16-85-.15q-20.8,0-41.61,0C80,.77,72.3.77,64.57.81l-7.25,0Q50.84,1,44.38.56C35.61.46,26.83.9,18.06.65,14.09.53,10.13.26,6.16,0a1.25,1.25,0,0,0,.37,1C7.24,2.08,8,3.13,8.74,4.17,9.15,4.73,10.89,7.86,11.93,7.89Z"/><path class="cls-1" d="M13.34,12.28c82.57.37,165.14-.17,247.71.14a2.31,2.31,0,0,0-.91-1.21c-1.34-1.29-2.71-2.56-4.1-3.79s-2.78-2.48-4.21-3.68a2.37,2.37,0,0,0-1.3-.77l-10.36-.32c-9.44-.29-18.86.32-28.3.24-28.33-.23-56.66-.22-85-.21q-20.8,0-41.62,0-11.61,0-23.22.1l-7.23,0q-6.47,0-12.91-.43c-8.75-.09-17.5.49-26.24,0L3.93,1.85A2.35,2.35,0,0,0,4.7,3.14Q6.49,5.27,8.36,7.32t3.78,4.07A2.25,2.25,0,0,0,13.34,12.28Z"/><path class="cls-1" d="M13.1,6.4c12.85.2,25.69,0,38.53.11,28.38.14,56.77,0,85.15,0,41.29,0,82.57-.11,123.86,0,.37,0-1.53-2.63-1.46-2.53-.37-.5-1.25-2.07-2.05-2.08l-10.41-.13c-9.41-.13-18.81.11-28.21.08q-42.52-.15-85-.09-20.8,0-41.6,0-11.59,0-23.18,0c-6.76,0-13.5-.08-20.25-.14-8.79-.08-17.59.16-26.38.09-4,0-8-.29-11.94-.53-.39,0,1.22,2.84,1.16,2.74C11.55,4.49,12.35,6.39,13.1,6.4Z"/><path class="cls-1" d="M11.79,13.92c82.58.37,165.16,0,247.75.14A2.4,2.4,0,0,0,258.45,13c-1.54-1.11-3.11-2.19-4.69-3.25S250.6,7.62,249,6.61A2.4,2.4,0,0,0,247.56,6l-10.44-.3c-9.42-.28-18.82.3-28.23.23-28.35-.23-56.71-.22-85.06-.21q-20.81,0-41.6,0-11.6,0-23.19.1l-7.22,0q-6.52,0-13-.4c-8.75-.08-17.5.46-26.24,0L.63,4.93a2.4,2.4,0,0,0,1,1.17C3.05,7.34,4.5,8.54,6,9.72s3,2.36,4.46,3.49A2.35,2.35,0,0,0,11.79,13.92Z"/><path class="cls-1" d="M12.3,9.7c12.86.16,25.72.07,38.58.12,28.39.11,56.78,0,85.18,0,41.3,0,82.6-.16,123.9.06a1.79,1.79,0,0,0-.69-1.12c-1.09-1.19-2.21-2.36-3.35-3.49S253.64,3,252.46,1.92a1.85,1.85,0,0,0-1.12-.7L241,.94c-9.44-.26-18.85.27-28.29.2C184.37.94,156,1,127.7,1Q106.9,1,86.09,1,74.5,1,62.88,1.08l-7.25,0q-6.47,0-12.91-.38C34,.66,25.2,1.19,16.44.82,12.53.66,8.63.47,4.73.28a1.75,1.75,0,0,0,.56,1.17C6.24,2.73,7.21,4,8.22,5.22s2,2.48,3,3.68A1.84,1.84,0,0,0,12.3,9.7Z"/><path class="cls-1" d="M11.84,18.81c82.62.38,165.24-.11,247.86.1.45,0,.48-.1.1-.33a15.69,15.69,0,0,0-2.83-1q-2.78-.86-5.56-1.65a16.19,16.19,0,0,0-2.93-.68L237.89,15c-9.38-.16-18.74.19-28.12.14q-42.57-.19-85.15-.12-20.79,0-41.57,0-11.58,0-23.15.06c-6.81,0-13.62-.19-20.43-.23-8.74-.05-17.48.27-26.22,0Q7.13,14.74,1,14.51c-1.48,0,3.32,1.79,2.6,1.51C5.4,16.7,7.19,17.34,9,18A15.55,15.55,0,0,0,11.84,18.81Z"/><path class="cls-1" d="M11.17,15.84c82.47.39,165-.18,247.42.12,1.44,0-3.09-2.16-2.6-1.9q-2.7-1.41-5.45-2.75a17.5,17.5,0,0,0-2.92-1.26l-10.53-.24c-7.49-.17-15,0-22.44.23H215Q133.26,9.48,51.47,10h.38c-5.54-.06-11.08-.35-16.62-.3l-19,.17h.39Q8.32,9.53,0,9.16a2,2,0,0,0,1,.95c1.44.94,2.89,1.84,4.37,2.71s3,1.75,4.45,2.57A2.08,2.08,0,0,0,11.17,15.84Z"/><path class="cls-1" d="M14,8.71c41.2-.24,82.42,0,123.62,0s82.59-.11,123.89.05a1.28,1.28,0,0,0-.43-1c-.77-1.08-1.58-2.12-2.42-3.15C258.16,4,256.27.93,255.19.91L244.84.68C235.41.46,226,.89,216.56.84c-28.33-.17-56.66-.16-85-.16q-20.8,0-41.6,0Q78.36.74,66.75.78l-7.26,0Q53,.91,46.6.52C37.83.43,29.05.87,20.28.6L8.64.24C8.41.24,11.05,4.79,11,4.68,11.27,5.14,13,8.72,14,8.71Z"/><path class="cls-1" d="M12.85,17.24c82.5.5,165-.14,247.5.11.5.1.55,0,.14-.31a20,20,0,0,0-3-1.6q-3-1.41-6-2.75a19.81,19.81,0,0,0-3.19-1.27l-10.55-.25c-7.49-.17-15,0-22.46.24h.42c-36.17-.26-72.35-.24-108.52-.21-18.22,0-36.45.28-54.67.14-4.53,0-9-.28-13.57-.34-7.35-.1-14.71.13-22.06.18h.41Q8.88,10.83.49,10.41a2.29,2.29,0,0,0,1.15,1c1.6,1,3.21,1.88,4.85,2.77s3.26,1.79,4.92,2.63A2.31,2.31,0,0,0,12.85,17.24Z"/><path class="cls-1" d="M11.54,11.75c82.56.66,165.13-.12,247.7.18a2.21,2.21,0,0,0-.91-1.12q-2-1.76-4.1-3.42T250,4.1a2.07,2.07,0,0,0-1.28-.66c-3.47-.09-6.94-.2-10.4-.3-9.43-.28-18.84.29-28.26.22-28.34-.22-56.69-.21-85-.2q-20.8,0-41.6,0-11.61,0-23.21.09L53,3.34q-6.49,0-13-.4C31.31,2.85,22.55,3.4,13.8,3,9.87,2.81,5.93,2.6,2,2.4a2.11,2.11,0,0,0,.8,1.19Q4.61,5.51,6.5,7.35T10.33,11A2.12,2.12,0,0,0,11.54,11.75Z"/><path class="cls-1" d="M13.47,14.79c41.3.44,82.6.12,123.9.12s82.63-.1,124,0a2.55,2.55,0,0,0-1.11-1.14c-1.57-1.18-3.17-2.33-4.78-3.45S252.2,8.11,250.56,7a2.5,2.5,0,0,0-1.45-.65l-10.43-.33c-9.42-.28-18.82.34-28.25.26-28.34-.25-56.69-.24-85-.23q-20.81,0-41.6.06l-23.2.1-7.22,0q-6.51,0-13-.43c-8.74-.08-17.49.49-26.22,0-4-.22-7.95-.47-11.93-.72a2.59,2.59,0,0,0,1,1.24q2.16,2,4.4,3.88T12.1,14A2.57,2.57,0,0,0,13.47,14.79Z"/><path class="cls-1" d="M14.36,7.3C27.13,6.87,39.91,6.93,52.69,7c28.39.12,56.78,0,85.17,0q61.94,0,123.87.05c.32,0-1.92-3.41-1.85-3.3-.34-.5-1.58-2.86-2.46-2.87L247,.74c-9.41-.15-18.82.14-28.23.1q-42.51-.18-85-.11c-41,0-82,.08-123-.14-.38,0,1.54,3.65,1.48,3.54C12.42,4.5,13.57,7.33,14.36,7.3Z"/></g></g></svg>