<svg xmlns="http://www.w3.org/2000/svg" viewBox="0 0 229.76 19.02"><defs><style>.cls-1{fill:#fac500;opacity:0.11;}</style></defs><g id="圖層_2" data-name="圖層 2"><g id="圖層_1-2" data-name="圖層 1"><path class="cls-1" d="M11.93,7.89c10.73.39,21.46.34,32.2.32,25.21,0,50.43,0,75.64,0,36,0,71.94-.09,107.91.05a1.29,1.29,0,0,0-.48-1c-.83-1-1.69-2-2.57-3C224.07,3.76,222.15,1,221,1L212.45.76c-4.1-.09-8.24-.23-12.34-.17-3.78.06-7.56.27-11.34.34-11,.19-22.07-.12-33.09-.14q-21.18,0-42.36,0Q93.93.76,74.54.8c-6,0-12,.09-18,.08C51.3.86,46.09.55,40.88.58,32.66.63,24.46.84,16.25.6,12.88.49,9.52.22,6.16,0a1.25,1.25,0,0,0,.37,1C7.24,2.08,8,3.13,8.74,4.17,9.15,4.73,10.89,7.85,11.93,7.89Z"/><path class="cls-1" d="M13.34,12.28c71.9.37,143.81-.11,215.71.14a2.31,2.31,0,0,0-.91-1.21q-2-1.94-4.1-3.79c-1.38-1.26-2.79-2.48-4.21-3.68A2.42,2.42,0,0,0,218.52,3L210,2.71c-4.11-.12-8.28-.26-12.39-.17-3.78.08-7.55.35-11.33.43-6.29.14-12.64-.1-18.94-.13-4.71,0-9.42,0-14.14-.06q-21.18-.06-42.36,0-19.4,0-38.79.08c-6,0-12,.15-18,.08-5.21-.06-10.41-.46-15.62-.4-8.18.09-16.35.33-24.52-.11L3.93,1.85A2.35,2.35,0,0,0,4.7,3.14Q6.49,5.27,8.36,7.32t3.78,4.07A2.25,2.25,0,0,0,13.34,12.28Z"/><path class="cls-1" d="M13.1,6.4c10.68.16,21.36.13,32,.12,25.21,0,50.41,0,75.62,0,36,0,71.92-.07,107.87,0,.38,0-1.52-2.63-1.45-2.53-.37-.5-1.25-2.07-2.05-2.08l-8.6-.1c-7.88-.11-15.75,0-23.63.08-11,.12-22.07-.06-33.11-.08q-21.18,0-42.37,0l-38.76,0-18,0c-5.24,0-10.47-.17-15.7-.16-8.25,0-16.49.13-24.74.06-3.37,0-6.73-.31-10.09-.51-.39,0,1.22,2.84,1.16,2.74C11.55,4.49,12.35,6.39,13.1,6.4Z"/><path class="cls-1" d="M11.79,13.92c71.91.42,143.83-.13,215.75.14A2.45,2.45,0,0,0,226.45,13c-1.54-1.11-3.11-2.19-4.69-3.24S218.59,7.62,217,6.62a2.41,2.41,0,0,0-1.42-.6l-8.62-.25c-4.14-.11-8.31-.24-12.45-.16-3.73.08-7.46.33-11.2.41-6.3.14-12.67-.1-19-.13l-14.15,0q-21.19-.06-42.38,0Q88.4,5.81,69,5.86c-6,0-12,.15-18,.08-5.25-.05-10.49-.43-15.73-.38-8.19.08-16.37.32-24.55-.1L.63,4.93a2.35,2.35,0,0,0,1,1.17C3.05,7.34,4.5,8.54,6,9.72s3,2.36,4.46,3.49A2.35,2.35,0,0,0,11.79,13.92Z"/><path class="cls-1" d="M12.3,9.7c10.7.14,21.39.15,32.09.13,25.22,0,50.43.05,75.65.05,36,0,72-.12,107.92,0a1.79,1.79,0,0,0-.69-1.12Q225.64,7,223.92,5.31c-1.13-1.16-2.29-2.28-3.47-3.38a1.77,1.77,0,0,0-1.11-.71L210.79,1c-4.11-.12-8.26-.26-12.36-.18-3.79.07-7.57.31-11.35.39-6.29.13-12.64-.09-18.94-.12L154,1q-21.18,0-42.36,0-19.4,0-38.78.06c-6,0-12,.13-18,.09-5.21,0-10.41-.41-15.61-.36-8.2.07-16.39.31-24.58,0C11.34.61,8,.44,4.73.28a1.75,1.75,0,0,0,.56,1.17C6.24,2.73,7.21,4,8.22,5.22s2,2.48,3,3.68A1.84,1.84,0,0,0,12.3,9.7Z"/><path class="cls-1" d="M11.84,18.81c72,.48,143.91,0,215.86.1.45,0,.48-.1.1-.33a15.69,15.69,0,0,0-2.83-1q-2.78-.86-5.56-1.64a15.57,15.57,0,0,0-2.93-.68l-8.74-.15c-7.85-.13-15.68,0-23.53.15-11.07.15-22.15-.09-33.22-.11q-21.19,0-42.4,0-19.36,0-38.73.05c-6,0-12,.07-18,0C46.6,15.15,41.3,14.91,36,15c-8.2.05-16.4.18-24.6-.08-3.46-.1-6.91-.23-10.37-.36-1.48,0,3.32,1.79,2.6,1.51Q6.29,17,9,18A15.55,15.55,0,0,0,11.84,18.81Z"/><path class="cls-1" d="M11.17,15.84c71.8.44,143.61-.09,215.42.12,1.44,0-3.09-2.16-2.6-1.9q-2.7-1.41-5.45-2.74a17.5,17.5,0,0,0-2.92-1.26l-10.49-.24c-7.4-.17-14.77,0-22.16.23h.38C139.13,9.75,94.9,9.81,50.68,10h.38c-5.41-.06-10.81-.36-16.22-.31l-18.69.16h.38C11,9.63,5.51,9.41,0,9.16a2,2,0,0,0,1,.95c1.44.94,2.89,1.84,4.37,2.71s3,1.75,4.45,2.57A2.08,2.08,0,0,0,11.17,15.84Z"/><path class="cls-1" d="M14,8.71c35.87-.2,71.74,0,107.6,0s71.94-.08,107.91,0a1.28,1.28,0,0,0-.43-1c-.77-1.07-1.58-2.12-2.42-3.15C226.16,4,224.27.93,223.19.91L214.64.72C210.55.63,206.42.5,202.32.56c-3.79.06-7.59.27-11.38.33-11,.19-22.05-.11-33.07-.13Q136.69.7,115.51.72q-19.4,0-38.78.05c-6,0-12,.09-18,.07-5.2,0-10.4-.32-15.6-.29-8.21,0-16.41.26-24.62,0L8.64.24C8.41.24,11.05,4.79,11,4.68,11.27,5.14,13,8.72,14,8.71Z"/><path class="cls-1" d="M12.85,17.24c36,.29,72,.1,107.94.09s71.71-.07,107.56,0c.5.11.55,0,.14-.31a20,20,0,0,0-3-1.6q-3-1.41-6-2.75a21.53,21.53,0,0,0-3.2-1.27c-10.91-.25-21.76-.32-32.68,0H184Q121.13,11,58.27,11.34h.42c-6.76,0-13.49-.24-20.24-.33-7.22-.1-14.47.13-21.7.18h.41Q8.82,10.83.49,10.41a2.29,2.29,0,0,0,1.15,1c1.6,1,3.21,1.88,4.85,2.77s3.26,1.79,4.92,2.63A2.31,2.31,0,0,0,12.85,17.24Z"/><path class="cls-1" d="M11.54,11.75c35.91.35,71.84.15,107.76.14s72-.1,107.94,0a2.21,2.21,0,0,0-.91-1.12q-2-1.74-4.1-3.41T218,4.1a2.18,2.18,0,0,0-1.28-.66l-8.59-.24c-4.12-.12-8.29-.26-12.41-.18-3.76.08-7.51.33-11.27.41-6.3.14-12.66-.1-19-.12l-14.15-.05Q130.2,3.2,109,3.21q-19.38,0-38.77.07c-6,0-12,.14-18,.08C47,3.32,41.78,2.93,36.56,3c-8.2.08-16.38.32-24.56-.07Q7,2.67,2,2.4a2,2,0,0,0,.79,1.19Q4.61,5.51,6.5,7.35T10.33,11A2.09,2.09,0,0,0,11.54,11.75Z"/><path class="cls-1" d="M13.48,14.79c36,.36,71.92.13,107.88.13s72-.06,108,0a2.55,2.55,0,0,0-1.11-1.14c-1.57-1.18-3.17-2.33-4.78-3.45S220.2,8.11,218.56,7a2.63,2.63,0,0,0-1.45-.65l-8.61-.27c-4.13-.12-8.31-.24-12.44-.15-3.75.08-7.49.34-11.23.43-6.3.14-12.67-.11-19-.14-4.71,0-9.43,0-14.15-.06q-21.18-.06-42.37-.05-19.4,0-38.78.08c-6,0-12,.15-18,.08-5.24-.07-10.47-.47-15.71-.41-8.18.09-16.34.32-24.51-.14C9,5.56,5.59,5.34,2.22,5.13a2.53,2.53,0,0,0,1,1.24q2.16,2,4.4,3.88T12.1,14A2.56,2.56,0,0,0,13.48,14.79Z"/><path class="cls-1" d="M14.36,7.3C25,7,35.58,7,46.2,7c25.21,0,50.43,0,75.64,0,36,0,71.93-.07,107.89,0,.32,0-1.92-3.41-1.85-3.3-.35-.5-1.58-2.86-2.47-2.87L216.83.78c-7.89-.13-15.76,0-23.65.1-11,.14-22.07-.08-33.1-.1q-21.18,0-42.36,0C82.05.76,46.4.81,10.74.59c-.37,0,1.54,3.65,1.48,3.54C12.42,4.51,13.57,7.33,14.36,7.3Z"/></g></g></svg>