<svg xmlns="http://www.w3.org/2000/svg" viewBox="0 0 184.78 11.39"><defs><style>.cls-1{fill:#fac500;opacity:0.11;}</style></defs><g id="圖層_2" data-name="圖層 2"><g id="圖層_1-2" data-name="圖層 1"><path class="cls-1" d="M7.17,4.73c8.74.19,17.47.21,26.21.2,20.66,0,41.33,0,62,0,19.79,0,39.58.07,59.36,0,9.61,0,19.22-.07,28.82,0,0,0-2-2.32-2-2.31-.5-.51-1.48-1.85-2.29-2a39.18,39.18,0,0,0-6.77-.2C166.27.44,160,.32,153.74.33c-4.89,0-9.78.22-14.67.21l-16,0q-15.78,0-31.56,0T59.83.51C50.66.54,41.5.34,32.33.37,22.77.4,13.26.4,3.72,0,3.61,0,5.3,2.55,5.26,2.5,5.5,2.82,6.56,4.72,7.17,4.73Z"/><path class="cls-1" d="M8,7.36c29.38.14,58.77.08,88.16.08s58.82.16,88.23,0a1.46,1.46,0,0,0-.57-.71c-.84-.76-1.7-1.5-2.57-2.22S179,2.14,177.85,1.9A35.17,35.17,0,0,0,171,1.64c-6.27,0-12.54-.18-18.8-.16-4.9,0-9.78.31-14.68.28l-16-.05q-15.78,0-31.56,0t-31.64.05c-9.17,0-18.32-.27-27.48-.21-6.71,0-13.4.14-20.11-.1-2.79-.09-5.57-.23-8.36-.34a1.5,1.5,0,0,0,.46.78c.72.85,1.45,1.68,2.2,2.51C5.39,4.78,7.2,7.36,8,7.36Z"/><path class="cls-1" d="M7.94,4c29.34-.12,58.68,0,88,0s58.81-.2,88.21,0c.15,0-.61-1.1-.68-1.19-.25-.33-.93-1.52-1.39-1.55-3.46-.18-6.95-.07-10.41-.09-7,0-14.08-.07-21.12,0-20.07.2-40.15,0-60.22,0-18.52,0-37-.09-55.57-.06-9.54,0-19.06,0-28.59-.13-.25,0,.71,1.68.68,1.62C7,2.82,7.5,4,7.94,4Z"/><path class="cls-1" d="M7.08,8.35q44.1.13,88.19.07c29.4,0,58.82.24,88.23,0a1.48,1.48,0,0,0-.68-.65c-.67-.46-1.35-.9-2-1.34-.86-.55-1.72-1.1-2.58-1.63a12.9,12.9,0,0,0-1.85-1,32.67,32.67,0,0,0-5.61-.26c-6,0-11.89-.12-17.84-.15-4.69,0-9.38.24-14.07.27-4.16,0-8.33,0-12.5,0q-17.3,0-34.6,0-15.9,0-31.79,0c-5.48,0-11,.16-16.46,0-3.93-.11-7.83-.23-11.76-.21-7.63,0-15.25.21-22.88-.07C6,3.18,3.2,3.05.38,2.94A1.51,1.51,0,0,0,1,3.65c.86.74,1.73,1.46,2.62,2.17C4.19,6.31,6.09,8.34,7.08,8.35Z"/><path class="cls-1" d="M7.39,5.8c58.77.53,117.57.07,176.35.13a1.08,1.08,0,0,0-.45-.66c-.68-.7-1.39-1.38-2.11-2S179.3,1,178.32.84a35.8,35.8,0,0,0-6.79-.23C165.27.58,159,.44,152.74.46c-4.9,0-9.79.27-14.68.25q-8,0-16,0-15.78,0-31.56,0c-10.55,0-21.09,0-31.64,0C49.65.71,40.49.46,31.33.5c-9.51,0-19,0-28.49-.35l2.1,3C5.23,3.48,6.67,5.8,7.39,5.8Z"/><path class="cls-1" d="M7.11,11.28c58.82.22,117.64,0,176.46.06.91,0-2.16-.95-1.69-.81a30.54,30.54,0,0,0-5.22-1.34c-2.3-.23-4.64-.13-6.94-.14C163.41,9,157.1,9,150.79,9c-10.18,0-20.37.15-30.55.14q-15.8,0-31.58,0t-31.6,0C47.84,9.13,38.63,9,29.42,9,19.81,9,10.21,8.94.61,8.7c-.89,0,2,1.07,1.56.9,1.07.41,2.15.8,3.23,1.17A8.82,8.82,0,0,0,7.11,11.28Z"/><path class="cls-1" d="M6.71,9.49c58.73.26,117.47.09,176.21.07.88,0-1.93-1.28-1.61-1.12q-1.67-.82-3.36-1.59a10.34,10.34,0,0,0-1.79-.73,29.61,29.61,0,0,0-4.42-.18c-6.37,0-12.74-.1-19.11-.13-11,0-21.93.18-32.9.17q-12.32,0-24.65,0H66.64Q52,6,37.3,5.79C29,5.69,20.67,6,12.36,5.85,8.24,5.79,4.12,5.62,0,5.48a1.23,1.23,0,0,0,.61.58c.87.56,1.74,1.1,2.63,1.62S5.65,9.49,6.71,9.49Z"/><path class="cls-1" d="M8.31,5.09c29.37.32,58.76.13,88.14.13,19.78,0,39.57.07,59.36,0,9.61,0,19.22-.06,28.83,0,.05,0-1.88-2.47-1.86-2.44-.43-.5-1.41-2-2.19-2.15a37.87,37.87,0,0,0-6.74-.2c-6.26,0-12.52-.14-18.78-.13-4.9,0-9.79.22-14.69.21l-16,0L92.77.46c-10.54,0-21.09,0-31.63,0C52,.52,42.82.32,33.65.35c-9.51,0-19,0-28.5-.28A24.38,24.38,0,0,0,6.54,2.7C6.72,3,7.73,5.09,8.31,5.09Z"/><path class="cls-1" d="M7.73,10.34c30.54.11,61.07.06,91.6.06,28.22,0,56.44.15,84.66,0,.94,0-2.15-1.29-1.79-1.12-1.22-.55-2.45-1.08-3.68-1.6a12.86,12.86,0,0,0-2-.73,52.16,52.16,0,0,0-7-.2c-5.54,0-11.08-.09-16.62-.11-11,0-21.92.19-32.87.17l-31.57,0-28.2,0c-7.57,0-15.12-.11-22.69-.2-8.3-.1-16.61.17-24.91,0C8.59,6.58,4.45,6.39.3,6.24a1.39,1.39,0,0,0,.7.58C2,7.4,2.93,8,3.91,8.49S6.57,10.34,7.73,10.34Z"/><path class="cls-1" d="M6.93,7c29.39.22,58.78.1,88.17.1s58.81.08,88.21,0a1.33,1.33,0,0,0-.57-.67c-.84-.68-1.69-1.35-2.55-2S178,2.4,176.8,2.17A37.19,37.19,0,0,0,170,1.93c-6.27,0-12.55-.18-18.82-.16-4.88,0-9.76.29-14.64.27L120.44,2Q104.66,2,88.88,2T57.25,2c-9.18,0-18.34-.24-27.52-.19C23,1.85,16.31,2,9.6,1.75,6.8,1.66,4,1.53,1.2,1.43a1.26,1.26,0,0,0,.48.71c.72.77,1.47,1.52,2.23,2.25C4.35,4.83,6.07,7,6.93,7Z"/><path class="cls-1" d="M8.11,8.88C37.52,9,66.92,9,96.33,9c19.78,0,39.56.05,59.34,0,9.63,0,19.27.11,28.9,0a1.54,1.54,0,0,0-.69-.67c-.68-.49-1.38-1-2.08-1.43-.87-.59-1.75-1.17-2.63-1.74A14.27,14.27,0,0,0,177.29,4a40.41,40.41,0,0,0-7.13-.29c-6.28,0-12.56-.19-18.84-.16-4.88,0-9.74.3-14.62.28l-16.06-.05q-15.78,0-31.56,0t-31.63,0c-9.18,0-18.35-.28-27.53-.22-6.71,0-13.4.14-20.11-.12C7,3.35,4.16,3.2,1.34,3.07a1.52,1.52,0,0,0,.59.74c.87.8,1.75,1.57,2.65,2.34C5.14,6.63,7.13,8.87,8.11,8.88Z"/><path class="cls-1" d="M8.62,4.36c8.67-.15,17.33-.15,26-.16,20.66,0,41.33,0,62,0,19.79,0,39.58.06,59.36,0,9.6,0,19.21-.12,28.8,0a14.07,14.07,0,0,0-1.26-1.95c-.32-.4-1-1.58-1.61-1.67a45.79,45.79,0,0,0-6.73-.16c-6.27,0-12.53-.1-18.8-.09Q125.25.42,94.1.48C64.88.48,35.66.63,6.44.31c-.22,0,.93,2.2.89,2.13C7.46,2.68,8.14,4.37,8.62,4.36Z"/></g></g></svg>