<svg xmlns="http://www.w3.org/2000/svg" viewBox="0 0 130.89 9.47"><defs><style>.cls-1{fill:#fac500;opacity:0.11;}</style></defs><g id="圖層_2" data-name="圖層 2"><g id="圖層_1-2" data-name="圖層 1"><path class="cls-1" d="M6,3.94c20.65.42,41.32.15,62,.15l61.9.06c.05,0-1.56-2-1.54-2-.27-.3-1.25-1.7-1.81-1.7Q95.66.25,64.83.27C44.26.27,23.66.78,3.1,0,3,0,4.42,2.12,4.39,2.08,4.59,2.35,5.47,3.93,6,3.94Z"/><path class="cls-1" d="M6.68,6.13c41.28.26,82.57,0,123.85.08a1.12,1.12,0,0,0-.45-.6q-1-1-2.07-1.89c-.45-.39-2-2.19-2.77-2.2-20.55-.31-41.1-.31-61.65-.31S22.5,1.71,2,.9c.09,0,2.19,2.71,2.22,2.74C4.49,4,6,6.13,6.68,6.13Z"/><path class="cls-1" d="M6.59,3.24c41.24.17,82.49,0,123.74,0,.18,0-.77-1.31-.73-1.26-.19-.25-.63-1-1-1Q97.72.89,66.86.87C46.29.87,25.7,1.2,5.13.74c-.2,0,.6,1.39.57,1.34C5.83,2.3,6.22,3.24,6.59,3.24Z"/><path class="cls-1" d="M5.9,7c41.29.29,82.59,0,123.88.08a1.15,1.15,0,0,0-.55-.54c-.77-.55-1.56-1.09-2.35-1.61S124.69,3.05,123.77,3C103.19,2.77,82.61,2.75,62,2.75S20.88,3.23.32,2.45A1.15,1.15,0,0,0,.81,3C1.53,3.65,2.25,4.26,3,4.85,3.5,5.25,5.08,7,5.9,7Z"/><path class="cls-1" d="M6.15,4.83c20.64.23,41.29.07,61.93.07s41.27,0,61.91.06c-.05,0-2-2.28-2-2.3-.35-.34-1.63-2-2.3-2C105.1.42,84.55.37,64,.37S22.9.83,2.37.12c0,0,1.76,2.49,1.74,2.47C4.36,2.89,5.56,4.82,6.15,4.83Z"/><path class="cls-1" d="M5.93,9.4c41.31.18,82.62,0,123.93,0,.75,0-1.75-.79-1.37-.67a15.85,15.85,0,0,0-4.25-1.15C103.62,7.45,83,7.45,62.38,7.45S21.12,7.77.51,7.24c-.74,0,1.66.9,1.3.76C3,8.45,4.65,9.39,5.93,9.4Z"/><path class="cls-1" d="M5.59,7.91c41.24.19,82.48,0,123.72.07C130,8,127.76,6.9,128,7c-.9-.46-1.81-.92-2.73-1.36a8.89,8.89,0,0,0-1.46-.62q-26.52-.27-53-.24c-23.59,0-47.21.48-70.78-.25A1,1,0,0,0,.51,5C1.23,5.51,2,6,2.7,6.4S4.71,7.9,5.59,7.91Z"/><path class="cls-1" d="M6.92,4.24c20.64.24,41.29.08,61.92.08s41.27,0,61.9,0c.08,0-1.46-2.1-1.43-2.07C129.08,2,128.12.47,127.58.47,107,.28,86.49.26,65.94.26S24.83.63,4.3.05a20,20,0,0,0,1.15,2.2C5.6,2.48,6.44,4.23,6.92,4.24Z"/><path class="cls-1" d="M6.45,8.62c41.24.17,82.49.05,123.74.05.77,0-1.74-1.08-1.46-1-1-.46-2-.92-3-1.36a10,10,0,0,0-1.6-.62c-17.68-.2-35.36-.25-53.05-.25C47.48,5.48,23.84,6,.26,5.2a1.2,1.2,0,0,0,.57.49c.8.47,1.61.94,2.43,1.38S5.48,8.61,6.45,8.62Z"/><path class="cls-1" d="M5.77,5.86c41.28.32,82.57,0,123.86.11a1.1,1.1,0,0,0-.46-.56c-.68-.58-1.36-1.15-2.06-1.7-.5-.4-2-1.95-2.75-2-20.56-.26-41.12-.29-61.69-.29S21.54,1.92,1,1.18a1.06,1.06,0,0,0,.4.6C2,2.42,2.62,3,3.25,3.66,3.62,4,5.06,5.85,5.77,5.86Z"/><path class="cls-1" d="M6.76,7.4c41.3.29,82.61,0,123.91.07a1.34,1.34,0,0,0-.56-.57q-1.19-.87-2.4-1.71c-.64-.44-2.25-1.95-3.17-2C104,3,83.4,2.91,62.83,2.91s-41.16.51-61.71-.35a1.29,1.29,0,0,0,.49.62c.73.66,1.46,1.31,2.21,1.94C4.29,5.53,5.94,7.39,6.76,7.4Z"/><path class="cls-1" d="M7.19,3.64c20.6-.31,41.2-.15,61.79-.15s41.26,0,61.89,0c.16,0-1-1.7-.93-1.65-.17-.24-.8-1.42-1.24-1.43Q97.86.29,67,.31C46.47.31,25.91.52,5.36.24c-.19,0,.78,1.85.75,1.79C6.22,2.23,6.79,3.65,7.19,3.64Z"/></g></g></svg>